<?xml version="1.0" encoding="utf-8"?>
<!-- Generator: Adobe Illustrator 19.1.0, SVG Export Plug-In . SVG Version: 6.00 Build 0)  -->
<svg version="1.1" xmlns="http://www.w3.org/2000/svg" xmlns:xlink="http://www.w3.org/1999/xlink" x="0px" y="0px"
	 viewBox="0 0 2820.3 1568" style="enable-background:new 0 0 2820.3 1568;" xml:space="preserve">
<style type="text/css">
	.st0{display:none;}
	.st1{fill:#909FAF;}
	.st2{fill:#B7C3CE;}
	.st3{fill:#1E3249;}
	.st4{fill:#D9E2E8;}
	.st5{fill:#F0F6FA;}
	.st6{fill:#5B6E84;}
	.st7{fill:#162635;}
	.st8{fill:#1A222F;}
	.st9{fill:#303D50;stroke:#17274F;stroke-width:0.5;stroke-miterlimit:10;}
	.st10{fill:#1E3249;stroke:#5B6E84;stroke-width:0.5;stroke-miterlimit:10;}
	.st11{fill:#8193A6;}
	.st12{fill:none;}
	.st13{fill:#C5D0D6;}
	.st14{fill:#303D50;}
	.st15{fill:#1A222F;stroke:#1A222F;stroke-width:0.5;stroke-miterlimit:10;}
	.st16{fill:#17274F;}
	.st17{fill:#303D50;stroke:#303D50;stroke-miterlimit:10;}
	.st18{fill:#0F161D;}
	.st19{fill:#12171F;}
</style>
<g id="img_inspire_1" class="st0">
	
		<image style="display:inline;overflow:visible;" width="2700" height="1790" xlink:href="../../../../Downloads/Inspire-1_20141105_0751.jpg"  transform="matrix(1 0 0 1 -32 -39)">
	</image>
</g>
<g id="wireframe_inspire_1">
	<g>
		<g>
			<path class="st1" d="M1823.8,154.9c0,0-53.3-15-125.1-19.8s-330.6-33.4-330.6-33.4s267.1,79.4,278.3,85.7
				c11.2,6.3,52.1,17.5,97.1,3c45.1-14.5,77.7-19.7,77.7-19.7L1823.8,154.9z"/>
		</g>
		<g>
			<path class="st1" d="M1254.6,583.5c0,0-31.3-11-74.2-16.7S983.8,534,983.8,534s156.8,57.9,163.3,62.1c6.4,4.2,30.5,12.5,58,5.6
				c27.5-6.9,47.3-8.8,47.3-8.8L1254.6,583.5z"/>
		</g>
		<g>
			<path class="st1" d="M2398.2,406.3c0,0-40.6-21.6-98.1-38.5c-57.5-16.9-262.7-86.5-262.7-86.5s202.8,112,210.8,119.1
				c7.9,7.1,39.2,23.5,78.4,20s66.7-1.8,66.7-1.8L2398.2,406.3z"/>
		</g>
		<g>
			<path class="st1" d="M2418.1,403c0,0,45.9,3.6,103.5,20.3c57.6,16.7,268.1,68.2,268.1,68.2s-231.2-14.5-241.7-12.8
				s-45.6-1.3-76.9-25.3s-55.3-37.3-55.3-37.3L2418.1,403z"/>
		</g>
		<path class="st2" d="M2316.3,752.7l-17.8-113.2c0,0,8.8,4,32.2-4l16.4,117.2C2347.2,752.7,2323.7,773.6,2316.3,752.7z"/>
		<path class="st3" d="M1071.5,647.7l-58.5-16.5c-4.2,1.8-10.2,5-16.2,10.5c-3.3,3-15.3,14.7-18.2,34c-0.9,5.9-2.6,18.2,4,31
			c3.5,6.8,8.1,11.3,11.2,13.9c16.8,5.3,33.6,10.6,50.4,15.9c-3.9-2.5-11.3-8.1-16.4-18c-7.4-14.6-4.5-28.4-3.5-32.8
			c0.5-2.1,6.8-28,29.8-36C1061,647.3,1067.3,647.3,1071.5,647.7z"/>
		<path class="st4" d="M1291.4,934l3.5-5.3l69.2,3.7c0,0,7.2,1.5,6.5-8.2c-0.7-9.7-1.3-30-1.3-30s-0.7-9.2,9.5-13.7
			c0.6-0.4,8.8-5.9,8.8-16.2c0-10.3-8.3-15.8-8.8-16.2c-1.2-0.1-5-0.7-8.3-3.8c-3.4-3.2-4.1-7-4.3-8.2c-5.6,0-11.1,0-16.7,0
			c0,0-3.3,3.7-2.5,8.5c0.8,4.8,0.7,8,0.7,8s-10.5,2.8-8.3,12c0,0,0.7,6.7,13,10c0,0,3.2,6.2-1.3,11.6s-19.4,0.6-31.9,36.8
			l-25.9-0.9L1291.4,934z"/>
		<path class="st5" d="M1346.3,844.7L1222.6,764c0,0-0.9,18.2,11.6,26.5c12.4,8.3,41.9,25.2,45.3,40.2s22.2,92.1,22.2,92.1l18.4,1.5
			c0,0,7.3-28.5,32.4-38c0,0,2.7-9.1,0-11.2L1346.3,844.7z"/>
		<path class="st2" d="M1352.8,874.7c0,0,4.7-0.6,8.8-6.1c0,0,2.5-4.6,1.3-9.1c-0.4-1.6-1.2-3.2-2.8-4.6c0,0-4-3.9-12-2.2
			c0,0-9.1,2.6-8.6,9.9C1340,869.9,1346.3,872.6,1352.8,874.7z"/>
		<path class="st1" d="M1222.6,764c0,0-0.6,17.7,11.6,26.5c12.2,8.8,42.3,25.3,45.3,40.2c3,14.9,22.2,92.1,22.2,92.1
			s-4.1,0.8-4.1-0.3s-20.1-75.5-20.1-75.5s-2-8-7.3-9c-5.3-1-32-8-32-8l-8.9-2l-10.8-37.1c0,0-2.9-5.8-4.1-6.9L1222.6,764z"/>
		<path class="st2" d="M1376.5,1017.6l-5.5,7l28.2,30.2c0,0,11.2,10.5,26.5,10.7c0,0,6.9-0.5,10.2-2.3c0,0-14.8-1-26.7-12.9
			L1376.5,1017.6z"/>
		<path class="st6" d="M1421.1,875.5l5.8,105.6c0,0,14.6-1.2,20.5,8.2l-4.5-114.2c-1.7-1-5.5-2.8-10.7-2.8
			C1426.8,872.4,1422.8,874.5,1421.1,875.5z"/>
		<polygon class="st3" points="1390.7,909.4 1425.6,921.2 1426.9,950.5 1403.3,942.5 		"/>
		<path class="st7" d="M1400.7,977.3l-28.6-38.4c0,0-4-4.6-5.5-5.3c0,0,3.5-0.8,4.2-6.5c0.7-5.8-1.2-35.2-1.4-34
			c-0.2,1.2,0.3-7,9.3-12.5c9-5.5,9.7-13,9.7-13s-0.1-14-5.2-15.8c0,0-2.5-3.1-4.6-3.6c0,0-9.2-1.6-12.1-12c-2.9-10.4,0-1.2,0-1.2
			l58.9,1.2l-7.6,7l-4,27.3l-18.5,8.9v29.4l-5.5,3h5.5l22.2,67.2L1400.7,977.3z"/>
		<path class="st8" d="M1672.4,891.8l-28.1,13.5l-32.3,54l-21,85v14.1l110.3,8.5c-0.3-9.5-0.7-19-1-28.5c1-0.5,2.6-1.3,4.1-2.8
			c2.4-2.4,3.2-5.1,3.6-6.2c1.5-4.9,0-9.2-0.6-10.6c0.1,1.1,0.9,8.6-3.2,12.8c-1.1,1.1-2.4,1.9-2.4,1.9c-2.8,1.7-5.6,2-7.4,2
			c-9.8,0.2-70.9-4.4-70.9-4.4l0,0c0,0-9-2.8-11.3-10.8c0,0,0.3-19-2.3-20.2L1672.4,891.8z"/>
		<path class="st3" d="M1621.8,887.2c0-1.8,17-103,17-103c0.4-3.1,0.6-8-1-13.8c-1-3.4-2.4-6.2-3.6-8.2
			c13.7-5.7,27.5-11.5,41.2-17.2l26.1,4.4l5.2,9.5l-12.5,21.8l2.1,35.7l-27,47.2L1621.8,887.2z"/>
		<path class="st8" d="M1804,798.5c-0.8,0-182.2,88-182.2,88.8S1618,918,1618,918s229.8-110.5,229-110.8s-42.5-4.2-42.5-4.2
			L1804,798.5z"/>
		<polygon class="st3" points="1644.3,905.3 1612,959.3 1618,918 		"/>
		<path class="st5" d="M1587.5,972.1l-21,21.1c-3.6,2.2-17.8,11.1-22.4,24.2c-0.5,1.5-1.6,4.5-1.6,8.7c-0.1,2.5-0.1,9.4,4.7,15.8
			c4.6,6,10.8,8,12.9,8.6c0,0,17.6,8,30.8-6.4c0,0,4.3-4.2,6.8-14.4c2.5-10.2,14.2-63,14.2-63l26.1-178.6c0,0,2.5-11.2-0.3-17.9
			c-2.8-6.7-3.6-8.2-3.6-8.2l-16.2,6.7c0,0,4.8,9.4,3.8,16.7s-28.2,177-28.2,177L1587.5,972.1z"/>
		<ellipse class="st4" cx="1294.7" cy="1355.7" rx="102.8" ry="94.2"/>
		<ellipse class="st9" cx="1255.3" cy="1359.5" rx="62.7" ry="70.5"/>
		<ellipse class="st6" cx="1252.3" cy="1359.1" rx="60" ry="69.1"/>
		<path class="st10" d="M1090.7,816.2c0,0-5.5,1.5-8,0.8s-33.5-10-33.5-10l-24-12c0,0-9.2-6.6-3.3-20.2c0,0-3.7-7.8-2.7-13.4
			c0,0-1.1-4.5,11.8-11c12.9-6.5,14.7-7.3,14.7-7.3l25.8-4.2l11.8,3.8c0,0,1,2.1-4.6,3.8c-5.7,1.7-27.5,7.2-27.5,7.2l3.7,16.8
			c0,0,27.7,5.2,33,9.5c5.3,4.3,9,6.3,11,11.7c0,0-9.2-4.8-16.2,4.3C1082.7,795.8,1076.5,810.7,1090.7,816.2z"/>
		<path class="st5" d="M1131.5,902c0.8,1.2,8.5-22.5,38.5-28l-24.5-100c0,0-31.5,0.5-38,17.5C1107.5,791.5,1119.5,884.5,1131.5,902z
			"/>
		<path class="st2" d="M1249,889.5c0,0-55.8-25.6-79-15.5l-24.5-100c0,0,66-11,73.5,18.5S1249,889.5,1249,889.5z"/>
		<path class="st1" d="M1166.5,948.5c0,0-29.4-33.3-35-46.5c0,0,14.7-26.4,38.5-28c0,0,14-10.7,79,15.5c0,0-33.3-12.4-50.7,12.5
			c0,0-26.7,9-21,30.6C1177.3,932.7,1182.3,941.7,1166.5,948.5z"/>
		<path class="st11" d="M1292,934c-1-1-43-44.5-43-44.5s-33.3-12.7-50.7,12.5c0,0-26,8-21,30.6c0,0,5,9.7-10.8,15.8L1292,934z"/>
		<path class="st1" d="M1187.7,683c0,0-82.7,76-80.2,108.5c0,0,2.5-14.2,38-17.5c0,0,50.5-7.8,68.9,9.9c0,0,39.3-101.6,67.3-112.9
			C1281.7,671,1183,699.3,1187.7,683z"/>
		<path class="st4" d="M1356.3,669.3c0,0-11.7-19.7-31-13.7c-19.3,6-36,10.4-43.7,15.3c-7.6,5-26.1,16-59.1,93
			c0,0,136.5,19.2,141.1,10c1-2,1-39,4.7-44.7c0,0-7.3-4-6-17c0,0-8.7,1.3-13.3-9.7c0,0-8.3-2.3-12.7-9.3c-4.3-7,2.7-12,2.7-12
			l4.7-2c0,0-2.7-10.3,3-10C1352.3,669.7,1356.3,669.3,1356.3,669.3z"/>
		<path class="st1" d="M1364.9,774c0,0,1.4,54.7,1.8,62.2H1350L1364.9,774z"/>
		<path class="st5" d="M1353.7,883.5c0,0,14.4-9,14.6-9.1c0.2-0.2,16.9,0,16.9,0s-3.2,6.2-8.8,7.8c0,0-2.4,1.5-2.8,2.1L1353.7,883.5
			z"/>
		<ellipse class="st4" cx="1346.3" cy="862.3" rx="4.4" ry="5.3"/>
		<path class="st5" d="M1350.4,860.2l12-2.5c0,0,2.4,4.3-0.7,10.8l-11.3-4.3C1350.4,864.3,1351,861.5,1350.4,860.2z"/>
		<path class="st5" d="M1383.3,851.8c-0.1,0.2-13.7,0-13.9,0c-0.1,0-8.8-3.6-11.1-8.6h11.6c0,0,4.4,4.7,9.4,5
			C1379.3,848.2,1383.6,851.4,1383.3,851.8z"/>
		<path class="st5" d="M1292,934c0,0,39.2,38.9,39.3,38.4c0.1-0.5,11.4-41.2,11.4-41.2l-47.3-2.5L1292,934z"/>
		<path class="st5" d="M1351.4,706.9l-27.7-11.6l-87.3,38.5c0,0-13.7,28.5-12.7,28.2s15.7-8,37.7-6l88.7-44.7l3.8-1.9
			C1353.8,709.4,1352.1,707.9,1351.4,706.9z"/>
		<path class="st5" d="M1348.1,852.2C1348.1,852.2,1348.1,852.2,1348.1,852.2c0-0.1-14.3,0.1-23.6,0.8c-7.5,0.5-18,1.7-30.7,4.7
			c9.1,3.8,19.3,7.5,30.7,10.8c10,2.9,19.3,5,28,6.6c-1.6-0.3-3.9-1.2-6.4-2.8c-3.2-2-6.4-5.2-6.6-10.1
			C1339.5,862.3,1339,855.2,1348.1,852.2z"/>
		<path class="st4" d="M1566.5,993.5c0,0-21-1.5-31,21.5c0,0-7.2,16.6-20.1,16.6s-63.6-2.4-63.6-2.4s-11.8-0.4-16.9-6.5
			s-62.8-83.9-62.8-83.9s-4.5-6.4-9-6.6c-4.5-0.2-20.4-1.1-20.4-1.1l-11.4,41.2l79.3,79.3c0,0,9.2,10.6,31.5,12.1
			s139.1,5.2,139.1,5.2s9.4-2.8,9.6-14.2s0-0.6,0-0.6l0.1-9.9c0,0-8.6,10-22.6,8.2c0,0-26.9-1.5-25.9-29
			C1542.5,1023.6,1544.1,1006.8,1566.5,993.5z"/>
		<path class="st2" d="M1281.7,671c0,0,64.3-44,160.7-31c0,0-34.3,24.2-45.3,38.2c0,0,6.5,7.2-3,17.1c-9.5,9.9-15.6,13-15.6,13
			s-6,4.2-7.5,10.6s-2.5,10.3-2.5,10.3s7.5-18.6-6-17c-0.2,0-8.4,1.3-13.3-9.7c0,0-8.9-3.4-11-7c0,0-7.5-7,1-14.3l4.7-2
			c0,0-2.8-10.1,3-10c5.8,0.1,9.7,0,9.7,0s-11.2-19.7-31-13.7C1305.5,661.7,1287,666.8,1281.7,671z"/>
		<path class="st5" d="M1187.7,683c0,0,0.2-0.1,0.4-0.4c7.9-7.4,120.5-112.1,187.7-120.6c69.7-8.8,102.7,2.5,102.7,2.5
			s29.5,25.5,33,42c0,0-26.3,5.5-69.2,33.5c0,0-89.7-14.8-160.7,31C1281.7,671,1184,699.8,1187.7,683z"/>
		<ellipse class="st5" cx="1341.3" cy="688.3" rx="3.8" ry="4.4"/>
		<ellipse class="st5" cx="1341.3" cy="688.7" rx="6.4" ry="7.2"/>
		<path class="st12" d="M1343.7,679.3l2.2-0.8c0,0,6.8-1.7,11.1,4c0,0,5.5,7.2,0,13.7c0,0-2.9,4.5-8,6.4c0,0-8.7-3.7-11-7
			c0,0-7.4-7.5,1-14.3L1343.7,679.3z"/>
		<path class="st4" d="M1347.2,669.3c0,0,38.9,0.8,49.8,8.9c0,0,6.1,9.2-4.1,18.2c-10.2,9.1-14.5,11.9-14.5,11.9s-7,7.5-7.4,12.2
			c0,0-0.6-9.8-8.6-8.3c0,0-8.8,1.1-13.3-9.7c0,0,16.6-7.2,8-20.1c0,0-4.3-6.7-13.3-3.2C1343.7,679.3,1340.8,668.5,1347.2,669.3z"/>
		<path class="st4" d="M1347,691.8l11.4,2.5c0,0,2.5-4.1,0.1-9l-11.3,0.7C1347.2,686,1348.5,688.8,1347,691.8z"/>
		<path class="st6" d="M1511.5,606.5c0,0,26-1,32.2,27s13.8,59.8,13.8,59.8l3.2-1.2c0,0,1.7-0.7,2.9,1.2l3-0.9c0,0,2.2,1,3,3.2
			l119.8-50.8l76.2-32.2l18.5,86.1l-70.5,30.5l-111.3,46.4c0,0,1.7,3.8,1.6,5.2c-0.1,1.5,0.2,5.2-4.7,7.6c0,0-35.9-58.8-37.2-91
			l-7,3.2c0,0-12.7-64.3-14-65c0,0-0.9-3-1.5-3.5s-4.6,0.2-4.6,0.2S1531.6,617.6,1511.5,606.5z"/>
		<path class="st6" d="M1166.5,948.5c0,0,15.4-4.4,10.8-15.8c0,0-5.5-21.2,21-30.6c0,0,38.7-3,93.7,32L1166.5,948.5z"/>
		<path class="st2" d="M1478.5,564.5l122.5,69.2c0,0,11.5,28.9,12.8,43.1l-44.2,18.7c0,0-2-3.5-3-3.2l-3,0.9c0,0-1.2-1.8-2.9-1.2
			l-3.2,1.2l-13.8-59.8c0,0-2.9-25.5-32.2-27C1511.5,606.5,1509.2,591.1,1478.5,564.5z"/>
		<path class="st4" d="M1650.3,661.3l-49.3-27.6c0,0,13.5,35.6,12.8,43.1L1650.3,661.3z"/>
		<path class="st5" d="M1604.6,643.7c0,0,38.5,20.2,38.1,20.9l-29,12.3C1613.8,676.8,1611.2,660.2,1604.6,643.7z"/>
		<path class="st13" d="M1351.4,706.9c0,0,14-2.6,13.5-19.2c0,0,0.3-12.8-8.5-18.4l-9.1,0c0,0-6-1.9-3.6,10c0,0,8.1-3.8,13.3,3.2
			c0,0,5.5,7.1,0,13.7c0,0-2.2,3.6-8,6.4C1349,702.7,1350.9,706.7,1351.4,706.9z"/>
		<path class="st14" d="M1131.8,1317c0.2-0.5-27.7,34.7,0,79.5C1131.8,1396.5,1112.7,1357.3,1131.8,1317z"/>
		<path class="st15" d="M1147.3,1413.2c-2.4-1.4-5.6-3.6-8.8-7c-3.3-3.6-5.4-7.1-6.7-9.7c-3.5-7.7-8.9-22.2-8.7-41.2
			c0.3-17.4,5.2-30.8,8.7-38.3c1.2-2.6,3.3-6.2,6.7-9.8c4.4-4.7,9.1-7.3,12.2-8.7c6.4,0,12.9,0,19.3,0c-3.7,2.4-9.2,6.6-14.2,13.3
			c-4.3,5.9-6.7,11.5-8,15.5c-1.7,6.4-3.3,14.5-3.8,24c-0.6,11.3,0.6,21,2,28.3c1.3,5.6,4.2,14.6,11.2,23.5c3.4,4.4,7.1,7.6,10.2,10
			C1160.7,1413.2,1154,1413.2,1147.3,1413.2z"/>
		<path class="st14" d="M1170,1298.5h29.3c-2,0.8-4.1,1.8-6.2,3.2c-11.3,7.2-15.8,18.8-17.5,24.5c-2.5,6.5-5.4,16.6-5.5,29.2
			c-0.1,9.9,1.5,18.1,3.2,24c1.1,4.6,5.3,19.1,19,28.2c4.7,3.1,9.3,4.7,13,5.7c-7,0.6-13,0.8-17.5,0.8c-6.6,0.1-10.6-0.1-12.2-0.2
			c-3.4-0.2-6.2-0.4-8.3-0.7c-2.7-1.9-5-3.8-7-5.8c-17.4-17.4-17.1-43-16.5-52.7c-0.1-9.6,0.9-36.1,19.6-51.7
			C1165.4,1301.4,1167.6,1299.9,1170,1298.5z"/>
		<ellipse class="st3" cx="1567.8" cy="1027.2" rx="4.2" ry="8.2"/>
		
			<ellipse transform="matrix(-0.9509 -0.3095 0.3095 -0.9509 2792.2837 2488.4163)" class="st6" cx="1593.5" cy="1022.8" rx="3.5" ry="8.8"/>
		<path class="st3" d="M1210.8,1301.3c0,0-4.6-4-11.5-2.8c0,0-19.4,5.1-26.6,37.1c0,0-7.1,18.9,1.8,47.8c0,0,4.9,22.3,30.8,29.8
			l7.5-0.6c-5.1-6.5-18.5-24.3-20-50.5C1191,1330.4,1206.3,1307.3,1210.8,1301.3z"/>
		<ellipse class="st11" cx="1251.6" cy="1359.5" rx="46.3" ry="53.7"/>
		<ellipse class="st1" cx="1257.9" cy="1358.9" rx="34.1" ry="38.6"/>
		<ellipse class="st4" cx="1259.8" cy="1357.2" rx="28.7" ry="33.7"/>
		<ellipse class="st5" cx="1262" cy="1358.4" rx="21.2" ry="22.9"/>
		
			<ellipse transform="matrix(0.9644 0.2646 -0.2646 0.9644 417.1473 -303.8632)" class="st6" cx="1336.5" cy="1396.5" rx="6.8" ry="18"/>
		<path class="st14" d="M1344.6,1180.5c0,0,6.9,0.5,16.9,20s19,37,20.5,37.5s9,20,11.5,37.5s7,26,7,26s22,16.5,22,50
			c0,0-1.3,45-39.9,53c0,0,16.9-23.4,14.9-48.8c0,0,3.2-62-65-87.6l-30-54.3l37.5-2.2l6.5-7L1344.6,1180.5z"/>
		<ellipse class="st8" cx="1725.2" cy="732.9" rx="3.8" ry="7.4"/>
		<ellipse class="st11" cx="1480.2" cy="962.8" rx="4.8" ry="5.2"/>
		<ellipse class="st11" cx="1459.7" cy="953.1" rx="1.4" ry="1.6"/>
		<path class="st6" d="M1122.7,755.2l-74.7-23.9c0,0-22-12.8-16-43.2c0,0,12.3-37.4,51-28.7l96.8,31.2
			C1179.8,690.5,1128.8,742,1122.7,755.2z"/>
		<path class="st6" d="M1108.3,797.3l-9.5-5.8c0,0-7.7-5.5-16.2,4.3c0,0-6.5,13.8,8,20.3s22,10.5,22,10.5L1108.3,797.3z"/>
		<ellipse class="st6" cx="1029.9" cy="781.5" rx="10" ry="11.2"/>
		<path class="st8" d="M1053.3,763.2h6.7c0,0,9.8-5.7,9.8-6.2s3.7-9.3,3.7-9.3l-22.4,5.8L1053.3,763.2z"/>
		<path class="st16" d="M1200.8,671l-54.5-10.5c0,0-8.1,0.2-10.8,3.2c0,0,27-1.1,33.6,23.3l10.6,3.4L1200.8,671z"/>
		<path class="st3" d="M1204.2,668c0,0.4-4.9-36-4.9-36s2.2-14.2,11.5-17.7c9.3-3.5,18.5-6.2,18.5-6.2s-3-37.3,20.8-37.3
			c0.8,0,20.2-5.2,29.5,32.7l9-1.4C1288.7,602.1,1204.2,662.8,1204.2,668z"/>
		<path class="st1" d="M1098.8,664.4c0,0-0.5-5.9-3-7.9l39.7,7.2c0,0,25.5-1.8,33.6,23.3L1098.8,664.4z"/>
		<path class="st14" d="M1092,662.2c0,0-7.7-18.2-33.1-14.5c0,0-20.2,3-31.9,29c-1.2,2.9-2.3,6.2-3.2,9.9c-2.7,11.9-1,22.2,0.7,28.6
			c1.8,4,8.1,16.6,22.2,22.5c4.9,2,9.5,2.7,13,2.9l11.7-1.9l-23.5-7.5c-3.1-2-7-5.1-10.2-9.7c-9.9-14-6.3-30.3-5.5-33.8
			c0.7-2.2,7-20.8,26.6-27.7C1075.3,654.3,1089.3,660.9,1092,662.2z"/>
		<path class="st4" d="M1098.8,791.5c-0.4-0.8-1.2-2.4-3-3.7c-2.9-2.1-6.1-1.6-6.8-1.5c-1.4,0.3-3.8,1.1-6.2,3
			c-3,2.4-4.3,5.3-4.8,6.7c-0.6,1.8-2.2,6.9,0,12.3c0.6,1.4,1.5,3.6,3.7,5.2c2.5,1.8,12.1,3.3,9,2.7l0,0c0,0-14-6.2-8-20.3
			C1082.7,795.8,1090.6,786.4,1098.8,791.5z"/>
		<path class="st8" d="M1555,699.9l-25.7,14.8l-84-14.8l-51.3-4.6c0,0,9.7-7.6,3-17.8c0,0,43.8-49.6,114.5-71.8
			c0,0,19.4,9.8,23.4,25.9c0.7-0.2,1.6-0.4,2.7-0.4c0.7,0,1.4,0,1.9,0.1c0.6,1.2,1.4,3.1,2.2,5.5c1,3.2,1.5,5.7,1.6,6.4
			C1544,647.8,1548.5,669.4,1555,699.9z"/>
		<circle class="st4" cx="1340.3" cy="688.7" r="2.8"/>
		<path class="st2" d="M1222.6,764c0,0,113.7,17.5,142.3,10l-14.9,62.2c0,0-4.3,3.9-3.7,8.5L1222.6,764z"/>
		<polygon class="st8" points="1721.3,752.3 1718,756.7 1718,767.7 1707.3,784 1711.3,843.2 1698.2,850 1694.2,780.8 1706.8,759 
			1701.5,749.5 		"/>
		<path class="st4" d="M1740.7,717.5c0,0,11.8,11.8,4.3,21.3l-11,7.8c0,0-1.2,3-5,7.5s-11,9.2-11,9.2v-6.6l3.3-4.3l-45.9-7.2
			L1740.7,717.5z"/>
		<path class="st8" d="M1364.9,774c4-3,10-7.2,17.6-11.8c1-0.6,3.3-2,8.2-4.8c5.4-3,13-7.2,22.5-12c0,0,17.2,4.5,11,16.5
			c0,0-25,9.5-31.4,16s-29.5,24.6-27.4,17.3C1365.8,794.2,1364.9,774,1364.9,774z"/>
		<path class="st14" d="M1561.7,697.5l-32.7,17.3c0,0-105.3-24.6-136.4-18.3l-7.7,6.6l-4.9,3.9l16.9,5.1l-4.4,5.5l75.6,15.5
			l50.5-18.2l13.2,2.7l30.1-16L1561.7,697.5z"/>
		<path class="st8" d="M1562.3,701.4c0,0,8.7,43.4,36.9,87l-95.8,39.8L1562.3,701.4z"/>
		<polygon class="st17" points="1694.2,820.5 1669.3,863.7 1698.2,850 1696.3,816.5 		"/>
		<path class="st3" d="M1400.7,977.3l36,3.3c0,0,9.7,0.3,16,13c6.3,12.7,15.3,36.3,15.3,36.3l-18.3-0.9c0,0-5.7,1.4-18.2-10.7
			L1400.7,977.3z"/>
		<path class="st3" d="M1166.5,948.5l1.8,16.5l-0.9,4.5l90.6-9.2l27-1.2c0,0,5.5-1.3,5.5-5.9c0-4.6,0.9-19.1,0.9-19.1L1166.5,948.5z
			"/>
		<path class="st14" d="M1292,934l44.2,43.3l-54-3.1l-38.5,3.1l-78.5,6.7c0,0-4.5,2.8-4.5,1.8s0-14.8,0-14.8l6.7-1.5
			c22.9-3.1,47-5.8,72.1-7.8c15.6-1.2,30.7-2.1,45.5-2.8c0.7-0.1,1.7-0.4,2.6-1.2c1.3-1.1,2.7-3.2,2.9-7.3
			C1290.9,942.5,1292,934,1292,934z"/>
		<path class="st14" d="M1712.7,872.4l1,16.4c0,0,9,1.8,9.2,12.2s9.5,173,9.5,173s3,13.2-9.9,13s-121.9-9-122.6-9s-8.5-1.5-9-3.5
			v-16c0,0,110.8,9.2,110.3,8.5s-0.8-28.2-0.8-28.2s7.8-5.7,7.5-12.2s-9.8-147.2-9.8-147.2L1712.7,872.4z"/>
		<path class="st11" d="M1217,1186.3l1.7,25.7l3.7,4.3l117.7-4.8l6.5-7l-5.2-81.2l-7-7.7l-0.7-14l-2.3-1h-2.3l-0.3-2.8
			c0,0-81.8-1.7-107.8,6l0.2,2l-1.8,1.5v16.7l-5.8,6L1217,1186.3z"/>
		<path class="st2" d="M1217.1,1187.8c0,0,75.5-12.6,127.5-7.3l-3.2-57.2c0,0-90.3-2.8-127.9,8.1L1217.1,1187.8z"/>
		<path class="st6" d="M1217.5,1192.2c0,0,75.7-10,128-5.8l-2.6-39.2c0,0-90.1-0.1-128,7.3L1217.5,1192.2z"/>
		<path d="M1698.2,879.4l-25.8,12.4l-63.3,108.9c0.5,1.1,1.2,2.6,1.8,4.5c0.3,0.9,0.7,2.6,1,5.8c0.2,2.3,0.4,5.5,0.1,9.3
			c0.2,1.4,0.7,3.7,2.4,5.8c2.8,3.6,7.1,4.6,9,5c7.2,1.6,34.3,3.5,70.9,4.4c3.2-0.4,7.1-1.5,9.8-4.6c0,0,2.6-3,3.2-7.9
			C1708.1,1014.9,1704.5,957.6,1698.2,879.4z"/>
		<path d="M1605.2,889.5l-6-101.1c0,0,8.2-3.8,3.1-12.8l15.7-6.5c1,1.6,2.2,3.8,3,6.7c0.9,3.2,1.1,6.5,0.8,10
			C1621,792.5,1614.6,833.4,1605.2,889.5z"/>
		<path class="st3" d="M1599.2,788.3l-23.1,9.7c1,6.3,2.2,15.3,0.9,25.2c-2.2,15.7-8.3,27.3-12.5,34c-1.6,7.3-3.2,14.7-4.8,22
			c0,0-2.2,5.8,0,12.4c2.2,6.7,8.8,19.9,8.8,19.9l35.8-16.6l0.6-10.1L1599.2,788.3z"/>
		<polygon points="1452.7,993.7 1467.9,993.7 1467.9,1030 		"/>
		<path class="st8" d="M1604.3,895.1l-35.8,16.6c0,0-7.6,18.2,10,26.5l20.5-9.6L1604.3,895.1z"/>
		<polygon class="st14" points="1599,928.7 1575,940 1576.4,983.6 1587.5,972.4 1593.5,962.8 		"/>
		<path d="M1562.3,701.4l-30.1,16l-13.2-2.7l-50.5,18.2l-75.6-15.5l4.4-5.5l-16.9-5.1c0,0-7.2,2.2-12,22.4l25.7,26.4
			c0,0,4.2-19.8,15-22.8l40.2-1.7l21.8,9.1l49-19.4l13.5,2.2l25.2-14L1562.3,701.4z"/>
		<path class="st3" d="M1542.5,744.8c-44.3,15.6-55.2,20-55,20.5c0,0.1,0.2,0,0.8,0c0,0,4-0.2,8,0.8c1,0.2,4.6,1.3,8.2,6.5
			c1,2.2,2.4,5.5,3.2,9.8c1.3,6.3,0.7,11.4,0.2,15c-1.5,12.4-3.2,23.1-4.5,31C1516.5,800.4,1529.5,772.6,1542.5,744.8z"/>
		<path class="st18" d="M1548,809.7c-0.1,5.1-1.2,17.5-9.8,29.8c-6.5,9.2-14.3,14.2-18.8,16.5c-9.6-1.3-19.2-2.5-28.8-3.8
			c2.3-3.3,4.7-7.2,7-11.7c2.2-4.4,3.9-8.5,5.2-12.2C1518,822.1,1533,815.9,1548,809.7z"/>
		<path class="st3" d="M1514.2,875.5"/>
		<path class="st8" d="M1509.5,882.5c0,0-5.2,3.6-5,9.3c0.2,5.7,0,22.2,0,22.2s0.5,4.2-4.5,5.5c0,0-6.2,0.7-6.5,5.7
			c-0.2,5,2.8,68.4,2.8,68.4s-1.2,5.9-5.5,6.5c-4.2,0.6-22.8,0-22.8,0v29.8l47.4,1.6l5.6-33.6l5.5-4.3v-19.2c0,0,1.2-13.5,11-17
			l-1.5-52.2V881c-3.7,1.2-9.6,2.6-16.8,2C1515.4,882.7,1512.1,883.4,1509.5,882.5z"/>
		<path class="st3" d="M1572,843.2c0,0-12.8,31.8-36,37.8l1.5,76.5c0,0-12.5,2.8-11,17v19.2l-5.5,4.3l-5.6,33.6
			c0,0,14.9-0.8,22.2-20.7c0,0,10.2-18.9,29-17.4l9.9-9.9L1575,940l3.5-1.8c0,0-13.9-5.3-9.4-26.8c0,0-14-23.5-9.4-32.1
			c0.7-1.4,10.8-19.9,10.8-19.9L1572,843.2z"/>
		<path class="st3" d="M1509.5,882.5l-52.8-4.7v6.4h-4v6.1h7.6l1.7,38.3l4.2,65h1.8v6.5h22.8c0,0,5.8,0.9,5.5-6.5
			c-0.3-7.3-2.8-68.4-2.8-68.4s-1.5-4.6,6.5-5.7c0,0,4.4-1.2,4.5-5.5s0-22.2,0-22.2S1503.8,886,1509.5,882.5z"/>
		<path class="st19" d="M1558.8,709.2l-25.2,14L1520,721l-49,19.4l-21.8-9.1l-40.2,1.7c0,0-10.3,0.9-14.8,21.9s-0.2,0.9-0.2,0.9
			l-25.7-26.4c0,0-4.1,25.3-3.4,44.7c0.6,19.3,1.8,61,1.8,61l58.9,1.2h40.7c3.2-4.8,8-13.4,10.2-25.3c2-11.3,0.7-20.6-0.5-26.2
			c0-2,0.2-6.6,3.2-11.5c2.8-4.6,6.6-7,8.3-7.9c18.3-6.8,36.7-13.6,55-20.5L1558.8,709.2z"/>
		<path class="st8" d="M1456.5,993.7c-0.2-1-1.7-21.2-1.7-21.2l-6.6-4.4l-1.7-42h3.3l-3.5-5.3l-1.7-42.8l10.9-3.2l1.2,3.2l-1.5-1.2
			l-5.8,2.1l0.3,9.6l4.5,5.2c0,0,2.2,0.7,2.4,7.3c0.2,6.7,1.7,21.9,1.7,21.9l1.8,5.3h1.8l4.2,65.5H1456.5z"/>
		<path class="st11" d="M1576.1,798c1.3,10.7,1.6,26.5-4.5,43.8c-3,8.6-7,19.4-17.5,28.7c-6.7,5.9-13.6,8.9-18.2,10.5
			c-3,1-7,2.1-11.8,2.5c-6,0.5-11.1-0.2-14.7-1c-17.6-1.6-35.2-3.1-52.8-4.7l34.1-25.6l28.8,3.8c3.8-1.6,14.1-6.6,21.5-18.3
			c7.5-12.1,7.3-23.9,7-27.9C1557.4,805.8,1566.8,801.9,1576.1,798z"/>
		<path class="st1" d="M1395.5,894.3c3.4,1.1,8,2.2,13.5,2.5c6,0.3,11.1-0.4,14.8-1.2c-0.4-6.7-0.7-13.4-1.1-20.1
			c1.5-1,5.3-3.2,10.7-3.4c5.6-0.2,9.6,2,11.2,3c0,0.9,0.1,1.8,0.1,2.7l10.9-3.2l1.2,3.2l34.1-25.6c5.7-8.7,9.2-16.6,11.2-22.6
			c0.7-1.9,3.4-9.9,5-20.8c0.7-5.1,1-9.4,1.1-12.7c2-14-2.8-26-11.3-29.8c-1.8-0.8-4.9-1.7-9.4-1.1c-1.6,0.7-6.1,2.9-9,8.1
			c-1.9,3.4-2.3,6.7-2.3,8.5c1.3,5.8,2.7,15.7,0.7,27.7c-2.2,12.5-7.2,21.6-10.5,26.7c-13.6,0-27.1,0-40.7,0l-7.6,7l-4,27.3
			l-18.5,8.9V894.3z"/>
		<path class="st6" d="M1724.7,1087c-0.5,0-78.7,7.8-78.7,7.8s0.8-10.5-3.7-10.8s-10.7,0-10.7,0v-2.2l8.8-0.7L1724.7,1087z"/>
		<path class="st6" d="M1571.2,1136l2.8,10.5c0,0,23.7,8.5,58.8-1c0,0,3.2-14.2,3-15.5C1635.7,1128.7,1573,1137,1571.2,1136z"/>
		<path class="st11" d="M1486.8,1141.8l5.2,18c0,0,0.3,1.8,2.3,1.7s30.3-4.5,72-1.7c0,0,4.8,0.8,5.7-2c0.8-2.8,2-11.3,2-11.3
			l-2.8-10.5L1486.8,1141.8z"/>
		<path class="st3" d="M1469.7,1103.3l-27.8,2.8c0,0,0.5,4.7,3,10.3s10.9,25.2,10.9,25.2l31.1,0.2l149-11.8l6.2-2.7l4.7-12.7
			l-0.7-19.8c0,0,0.7-10.7-3.7-10.8s-10.7,0-10.7,0v-2.2l8.8-0.7l-41.3-3.3h-78.4l0.5,19.6c0,0-6.5,1-8.3,1l-8,7l2.2,4.4l-3.7,8.8
			c0,0-16.4,6.9-23,0.3c-0.8-0.8-6.3-7.7-6.3-7.7l1.7-0.7l-0.2-3.5L1469.7,1103.3z"/>
		<path class="st8" d="M1376.5,1017.6l-5.5,7l14.4,15.4c0,0-17.7,2.6-17.9,3.1s0,3.8,0,3.8l-9.3,2.2l-25.5,0.8h-29.2
			c0,0-60.7,3.2-89.3,7.8c-28.7,4.7-0.8,0-0.8,0s-34.5,3.7-35,3.2s-5.5-6.8-5.5-6.8s5.5-3.7,2-6c-3.5-2.3-11-8-11-8l-1-17.3l5.3-0.5
			c0,0-12.7-15.8,5-35.2h-10.3l-2.1-1.4l5.8-1.9c0,0,111.1-9.9,115.8-9.6s54,3.1,54,3.1L1376.5,1017.6z"/>
		<path class="st14" d="M1341.8,1049.7l2,3.5v39.5c0,0,2,1.7-2.8,3.3h-8.3c0,0-3.2,1.2-4,1.8c0,0-91.2-0.5-107.8,6h-11.5
			c0,0-3.3-1-4.2-4l-11.7-6.8c0,0-2,0.7-2.8-6c-0.8-6.7-1.5-21.5-1.5-21.5s-0.5-2.2,4.3-3.2s5.8-1.3,5.8-1.3c2.4-0.4,5-0.7,7.8-0.9
			c2.2-0.1,4.2-0.2,6.2-0.2c-0.4-0.7-0.8-1.4-1.2-2C1212.2,1058,1267.3,1050.1,1341.8,1049.7z"/>
		<path class="st6" d="M1183.3,1060.8c-0.7,0.1,5.9,4.7,5.9,4.7s-3.3-4.5,24.2-5.5l-1.2-2L1183.3,1060.8z"/>
		<path class="st6" d="M1498.7,1161l6.5,23.3c0,0-0.2,3.3,4.5,3.5s42-0.8,45.5-1.8s5.8-2.2,5.8-4s4-22.3,4-22.3
			c-9.6-1.2-20.8-2-33.3-1.7C1519.4,1158.2,1508.3,1159.4,1498.7,1161z"/>
		<path class="st8" d="M1341.8,1049.7l2,3.5v39.5c0,0,0.8,3.3-2.8,3.3s-3.7,0-3.7,0l3.3,13.9l23.7,3.3l6.7,4.7l1,2.8h-2l0.2,1.2
			l3.7,6.3c0,0,13.2,1.8,21.5,0l4.8-6.7v-1.3l-2-0.7l-0.2-3.3l9.3-7.5l34.5-2.5l27.8-2.8l6,3.8l0.2,3.5l-1.7,0.7l6.3,7.7
			c0,0,6.2,6.7,23-0.3l3.7-8.8l-2.2-4.4l8-7l8.3-1l-0.5-19.6h78.4c0,0-7.4-1.6-8.2-3.4l-0.1-18.8c0,0,0.2,10.1-9.6,13.5l-139.1-5.2
			l-6.3-0.7c0,0-4.5,2-10.2,2.3c0,0-13.7,0.5-26.5-10.7l-13.8-14.7c0,0-17.8,2.2-17.9,3.1v3.8l-9.3,2.2L1341.8,1049.7z"/>
		<path class="st4" d="M1229.2,828l40.9,10.1c0,0,5.3,1.5,7.3,9s20.1,75.5,20.1,75.5l-4.5-0.3l-1.7,11.8l-42.4-44.5L1229.2,828z"/>
		<path class="st5" d="M1368.3,729.3c0,0-7.5-5.3-6-17c0,0,8.4-1.8,8.6,8.3L1368.3,729.3z"/>
		<path class="st16" d="M1059.8,740.7l-14.1,2.3l-1.2-2.3l-146.2-23.2c0,0,34.2-15,41-52.2s-12.8-70.5-12.8-70.5l139.8,27.5
			c0,0,17.5,15.2,17,25c0,0,8.4,3.5,12.6,9.3c0,0,2.9,3.8,3,7.9l-6.8-2.2c0,0-7.8-12.6-20.5-14.5l-58.5-16.5
			c0,0-27.5,12.5-34.5,44.5c0,0-4.8,29.6,15.2,44.9L1059.8,740.7z"/>
		<path class="st6" d="M874,613.7c0,0,34-0.7,38,30.3c0,0,2.3,27.2-16.2,38.2s-36.3-1.5-36.3-1.5c2.4,1.1,12.4,5.3,24.2,1.5
			c2.7-0.9,10.5-3.8,16.1-11.7c4.1-5.6,5.3-11.1,5.7-14C909.8,624.3,888.7,614.7,874,613.7z"/>
		<path class="st8" d="M874,613.7l-154.8-30c0,0,8.5,11.3,8.8,15h1.5l6.7,58.2l-3,1.2l126.3,22.6c1.2,0.6,15.9,7.7,30.6-0.4
			c12.9-7.2,15.7-20.5,16.1-22.4c0.5-1.8,4.3-17.2-6.1-30.7C890.4,614.7,876.1,613.8,874,613.7z"/>
		<path class="st14" d="M1725.2,446.5l22.3,70l57,286.5l73,4.5l6.5-7.8l-7-1.7l4.5-21.5c0,0,5,0.3,5.7-3.8c0,0,0.7-2.6-4-3.6
			c-4.7-1.1-16.8-2.1-16.8-2.1L1849,616l1.7-4.7l-9-55.3c0,0,15.3-13.3-0.3-36.7c0,0-10-15.7-12-16.3v-15.3l19.3-0.3l3.3-24.3
			l-22.3-6.3l3.3-10.2l-13-3.2L1725.2,446.5z"/>
		<path class="st8" d="M1870.3,767.4l242-118c0,0,6.7,19.3,12.3,23.3l-246.5,119.8l3.3-15.9c0,0,5.7,0.7,5.7-3.8c0,0,0.8-2.8-4-3.6
			L1870.3,767.4z"/>
		<polygon class="st8" points="1845.6,580 1868,569.8 1850.3,627.4 1849,616 1850.7,611.3 		"/>
		<path class="st8" d="M1862.1,730.4l21.7-71l-1.2-4.3l3.3-9c0,0,1.2-13.1-19.2-18.6c0,0-8.2-2.6-16.5,0L1862.1,730.4z"/>
		<path class="st4" d="M1886,506.8c0,0,9-8.5,24.4-2.9s14.1,13.4,14.1,13.4l-40.4,121.5c0,0-12.5-16.2-33.8-11.4L1886,506.8z"/>
		<path class="st8" d="M1913.1,551.5l94.4-39.9c0,0,20.3,56.3,33.8,77.8L1882.7,655l3.3-9c0,0,0.3-4.1-1.9-7.2L1913.1,551.5z"/>
		<path class="st6" d="M2368.8,897.5h-49.3c0,0-26.5-2-8-12C2311.5,885.5,2360.1,893.8,2368.8,897.5z"/>
		<path class="st3" d="M2311.5,885.5V866c0,0-7.9-0.8-7.1-4.1c0,0-0.9-1.9,5.1-2.1s8.4,0,8.4,0l6.6-26.8l-10.1-62.3l1.6-2.7
			l-1.6-10.3c0,0,0.6-3.7,1.9-5c0,0,1.5,6.7,11.7,5.8c0,0,15.7-1.2,19.2-5.8l-3.7-20.4l7.5-32.8c0,0-15.8-6.8,6.2-25.8l2.8-23.2
			l-11.5-4.5l-0.2-16.5l-9.8-3l-1.6-16.5l15.6-4.5l93,29.5l-16.5,45.5l-60.2,217L2311.5,885.5z"/>
		<path class="st2" d="M607,957.5l41.5-9c0,0,26.5-2,27.5,4.5C676,953,640,964.5,607,957.5z"/>
		<path class="st3" d="M607,957.5l-109-239l-6-3.7l-27.5-54.3l71.2-13.3L551,694c0,0,33.5,5.1,45.5,44.8v5.2l25,73.2l13,35.3l-8-3
			L626,861l15.5,38.5l2.5-13.2l8,21.7v5l4.5,8l19.5,2.1V946c0,0,4.3,1.8,0,7c0,0,0.5-6.7-27.5-4.5L607,957.5z"/>
		<path d="M641.5,899.5L659,830l-1.8-4.2l1.8-8.6c0,0-1-10.4-14.5-13.4c0,0-16.2-3.2-21.2,3.2l-1.8,10.2l13,35.3l-8-3L626,861
			L641.5,899.5z"/>
		<polygon class="st8" points="431,535 464.5,660.5 535.8,647.2 506.3,513 485,518.3 483.4,515.3 444,528.7 444.3,530.7 		"/>
		<path class="st8" d="M708,668.9c0,0-9,33.8-12.3,39.1c0,0-1.7,10-11,11.3c0,0,4.7-8.3,1.7-14.7c0,0-8.3-11-25-8c0,0-6.3,1-7.3,8
			l-2.3,6.3c0,0-7-5.3-5-14.7l2-7.7l47-15.7L708,668.9z"/>
		<path class="st3" d="M708,668.9l28.2-12l-6.7-58.2H728c0,0-2.8-7.8-8.8-15c0,0-8.4-8.4-16.8-9.7s-97.5-18-97.5-18l-8.4-25h-5.8
			l-0.6-13.8c0,0-7.4-3.8-16.4-3.4s-42.1,2-42.1,2l-25.3-2.9l29.4,134.2l15.2-2.6L708,668.9z"/>
		<polygon class="st8" points="648.7,688.7 637.7,690.5 586,683.9 571.2,689 567.7,684.1 562.7,686.7 564,690.5 558.3,692.3 
			561.9,697.5 551,694 535.8,647.2 551,644.7 708,668.9 		"/>
		<path class="st8" d="M479.3,443c0,0,0.3-40,27-42c26.7-2,36,38,36,38s33.7,2,42.3,22.3l5,44.7c0,0,1.9,5.9-2.2,10.1
			c0,0-9-3.3-16-2.1l-39.8,1.9l-25.3-2.9l-21.3,5.3l-1.6-3l-35.3,11.9c0,0-3.1-6-3.5-10.9s-3.9-44.1-3.9-44.1s6.4-16.2,13.8-19.8
			S465,446.5,479.3,443z"/>
		<path class="st2" d="M651.7,711l2.3-6.3c0,0,0.9-7.5,7.3-8c0,0,16.8-3.3,25,8c0,0,3.2,5.2-1.7,14.7l-27.9,92.3
			c0,0-9.9-12.6-29-7.6L651.7,711z"/>
		<polygon class="st6" points="1850.3,482.7 1882.7,490.7 1953.3,482.7 1833,446.5 1829.7,456.7 1852,463 		"/>
		<polygon class="st8" points="1714.7,292 1718,336 1714.7,437.3 1718,443.3 1725.2,446.5 1820,443.3 1833,446.5 1829.7,287.3 
			1797.3,287.3 1784.2,287.3 1732.8,287.3 1732.8,292 		"/>
		<path class="st3" d="M1730,292c0,0-3.7-6-4.8-16s2.4-55.3,2.4-55.3c1.7-3,3.9-6.3,6.8-9.8c2.4-3,4.8-5.4,7-7.5
			c1.9-1,4.8-2.4,8.3-3.8c13.3-5.3,25.2-6.1,38.3-6.2c8.1,0,24.5,0.3,48.2,3.5c19.9,2.7,42.5,7.2,42.5,7.2l0,0
			c3,2.6,6.4,6.1,9.7,10.5c2.7,3.6,4.8,7.1,6.3,10.2c-1.1,18.4-2.1,36.9-3.2,55.3c-0.1,1.9-0.5,5.4-2.7,9.2c-2,3.6-4.7,5.8-6.2,6.8
			C1882.7,296,1788,278,1730,292z"/>
		<path class="st6" d="M1976,374.7l108.7,38.7c0,0,40,11.3,42.7,44c0,0-2,46-50,39.3l-94-34l6-62l-5.3-4.7L1976,374.7z"/>
		<path class="st8" d="M1774.1,193.9c0,0,8.5-50.9,39.9-49.3c0,0,34.9,0.1,38.3,54.9C1852.3,199.6,1794.8,191.9,1774.1,193.9z"/>
		<path class="st14" d="M1953.3,482.7l30-20l6-62l-5.3-4.7l-8-21.3c0,0-5.5-7.9-18.5-12.4s-64.5-22.5-64.5-22.5l-5.6,96.2
			c0,0-5.4,11.8-26.2,10.5c0,0-14.5-0.5-24-8l2-148.7l-9.6-1l3.3,157.6L1953.3,482.7z"/>
		<path class="st8" d="M1837.2,438.5c0,0,29.1,22,50.2-2.5l7.3-137.2c0,0-32.8-8.6-55.4-8.9L1837.2,438.5z"/>
		<path class="st3" d="M2068.2,407.5l21.1-11.5c0,0,46.7-2.3,66.7,50.5c0,0,7.3,54.2-16,78.2c0,0-53.2,25.3-79.3-34
			c0,0,48.4,26.7,65.8-27.7c0,0,8.4-37.2-54.4-54.1C2009.3,392,2068.2,407.5,2068.2,407.5z"/>
		<path class="st14" d="M2045.8,485.3l-36.5,16.7l-1.8,9.7c0,0,11.2,48,33.8,77.8l10.3,9.1l111-52.6l-50.3-13c0,0-40.8-3-51.6-42.3
			L2045.8,485.3z"/>
		<path class="st14" d="M2112.3,649.3v-5.7l38.3-25l26.7-12.2l3.3-15.2c0,0,4-14.7,16-17.3c0,0,11.3,2.3,16.7-9.5l32.7-5.9
			c0,0,20.7-10.8,20.7-16.7l-7.3,28.4c0,0-0.7,18.9-21.3,25.3l-16.7,3l-6.7,18.1c0,0,9.3,10.5-4.7,20.9l-30.7,22.7
			c0,0-16,6.9-26.7,9c-10.7,2.1-25.3,7.6-25.3,7.6l-2.7-4.2L2112.3,649.3z"/>
		<path class="st16" d="M2336.9,610c0,0-13.6-39-56.2-26.7c0,0,1.9,42,10.7,54.3c0,0,36.5,8.9,47.2-11.1L2336.9,610z"/>
		<path class="st8" d="M2112.3,530c-4.7,0,100,34.5,100,34.5s39.3,2,53.3-22.6c0,0,22-30.6,9.3-59.3c0,0-8.7-14.6-17.3-19.7
			c0,0-8.7-15.7-29.3-23s-140-44-140-44c7.9,1.1,19.4,3.7,31.6,10.7c13,7.4,20.5,16.1,22.1,18c6.9,8.2,10.8,16.3,13,21.8
			c1.3,7.4,1.9,16.7,1.2,27.3c-0.9,15.6-4.9,35.2-17.2,50.8C2139,524.7,2118.6,530,2112.3,530z"/>
		<path class="st8" d="M2275,482.7l23.5,5.3c0,0,26.2,4,30.2,35.3c0,0,3.7,37.7-30.2,41.2c0,0-22.4,3.6-34.8-11.1l2-11.5
			C2265.7,541.9,2288.7,512.7,2275,482.7z"/>
		<path class="st8" d="M2400.7,380.7c-2.4-0.5-30.3,0-31.8,45.3c0,0,26.5-4,58.5,0C2427.3,426,2434,387.3,2400.7,380.7z"/>
		<path class="st8" d="M2445.5,635c0,0,5.8-12.3,5.8-14.3s14-3.3,14-3.3l3.3-108.7l-11.6-6.7l-38.4-4.6c0,0,2,49.3-32,51.3
			c0,0-52-19.3-52-15.7s0,43,0,43l17.8,29.5L2445.5,635z"/>
		<path class="st11" d="M2263.7,553.4l-4.4,16.9c0,0-1,9.3-3.5,11.4l16.1,23.7c0,0,5.7,4.9,11.3,3.9l-2.5-26.1
			c0,0,41.1-14.3,56.2,26.7l15.6-4.5l-17.8-29.5v-43l0.6-17.1c0,0-14.8-41.4-44.9-30.6l-1.5,0.6c0,0,45.1,2.6,39.2,49.8
			c0,0-3.3,35.5-45.5,28.4C2282.5,564,2272.5,562.1,2263.7,553.4z"/>
		<path class="st8" d="M1882.7,490.7c0,0-4.3,8-4.3,14.7c0,6.7,4.3,12.7,4.3,12.7l3.3-11.3c0,0,26.5-13.9,38.5,10.5l-4.3,12.8
			c0,0,9.8-3.4,13.4-12c3.7-8.7,14-34.7,14-34.7L1882.7,490.7z"/>
		<path class="st14" d="M2457.1,502c0,0,6.6,1,7.2-13c0.7-14,2-42.5,2-42.5l-10.7-15.2c0,0-55.7-17-117.2-1.3l-9.7,13v42.3v5.4
			l34.6,13.3l55.3-6.7L2457.1,502z"/>
		<path class="st3" d="M2418.7,497.3c0,0,3.3,50.3-32,51.3l-52-15.7l0.6-17.1c0,0-15.9-42.6-46.4-30.1c0,0,8.9-7.1,39.9,4.9
			l34.6,13.3C2363.3,504,2420.7,497.1,2418.7,497.3z"/>
		<path class="st1" d="M859.5,680.7c0,0,6.5,6.9,10.5,7.6c0,0,4.8,25.5,28.2,29.2c0,0,31.6-10,41-52.2c0,0,8.8-36.8-12.8-70.5
			c0,0-17.5-8.4-38.2,11.6c0,0-14.3,4.3-14.3,7.3c0,0,33.3-0.3,38,30.3C912,644,913,705,859.5,680.7z"/>
		<g>
			<path class="st1" d="M483.4,421.2c0,0-52-21.2-123.4-32.5C288.7,377.3,32.7,324,32.7,324S293.3,435.3,304,443.3
				s50.7,24,96.7,11.3c46-12.7,78.9-15.9,78.9-15.9L483.4,421.2z"/>
		</g>
		<g>
			<path class="st1" d="M516.3,425.5c0,0,52.7-0.1,123.8,6.3s327.3,24.9,327.3,24.9s-264,2.5-275,3.9s-51.4,1.4-96.2-10.2
				c-44.8-11.6-77.1-17.7-77.1-17.7L516.3,425.5z"/>
		</g>
		<g>
			<path class="st1" d="M1813.2,158.2c0,0,38-2.3,89,1.1c51,3.4,234.9,10.9,234.9,10.9s-190.4,13.6-198.4,15.5
				c-8,1.8-37.1,3.5-68.9-6.1s-54.8-14.3-54.8-14.3L1813.2,158.2z"/>
		</g>
	</g>
</g>
</svg>
