<?xml version="1.0" encoding="utf-8"?>
<!-- Generator: Adobe Illustrator 17.1.0, SVG Export Plug-In . SVG Version: 6.00 Build 0)  -->
<!DOCTYPE svg PUBLIC "-//W3C//DTD SVG 1.1//EN" "http://www.w3.org/Graphics/SVG/1.1/DTD/svg11.dtd">
<svg version="1.1" id="Layer_1" xmlns="http://www.w3.org/2000/svg" xmlns:xlink="http://www.w3.org/1999/xlink" x="0px" y="0px"
	 width="314px" height="155px" viewBox="0 0 314 155" enable-background="new 0 0 314 155" xml:space="preserve">
<g>
	<polygon fill="#007481" points="91.856,25.629 91.856,20.283 36.257,20.283 29.338,20.283 29.338,25.629 36.257,25.629 
		36.257,65.183 47.326,65.183 47.326,70.554 36.257,70.554 36.257,75.908 91.856,75.908 91.856,31 75.586,31 75.586,25.629 	"/>
	<g>
		<polygon fill="#007481" points="136.08,65.183 154.195,65.183 154.195,20.283 98.597,20.283 98.597,25.629 126.426,25.629 
			126.426,31 98.597,31 98.597,75.908 154.195,75.908 154.195,70.554 136.08,70.554 		"/>
		<polygon fill="#007481" points="253.61,25.629 278.882,25.629 278.882,20.283 223.284,20.283 223.284,75.908 278.882,75.908 
			278.882,31 253.61,31 		"/>
		<g>
			<polygon fill="#007481" points="160.94,20.283 160.94,65.183 168.447,65.183 168.447,70.554 160.94,70.554 160.94,75.908 
				216.539,75.908 216.539,20.283 			"/>
		</g>
	</g>
	<rect x="69.594" y="31.017" fill="#E75300" width="25.934" height="11.601"/>
	<rect x="157.57" y="31.017" fill="#6CACB3" width="127.029" height="11.601"/>
	<rect x="157.57" y="31.017" fill="#EDAA00" width="76.461" height="11.601"/>
	<rect x="16.981" y="31.017" fill="#EDAA00" width="41.598" height="11.601"/>
	<g>
		<g>
			<g>
				<g>
					<path fill="#FFFFFF" d="M268.135,53.586h-34.104V42.597h34.104V53.586z"/>
				</g>
			</g>
		</g>
		<path fill="#FFFFFF" d="M81.122,53.604H69.591v11.571H58.588V53.604H47V42.605h11.588V31.017h11.002v11.588h11.531V53.604z"/>
	</g>
	<rect x="36.257" y="25.629" fill="#6CACB3" width="39.329" height="5.389"/>
	<rect x="216.452" y="25.629" fill="#E75300" width="37.157" height="5.389"/>
	<rect x="84.937" y="20.283" fill="#6CACB3" width="6.919" height="5.345"/>
	<rect x="137.361" y="20.283" fill="#EDAA00" width="71.244" height="5.345"/>
	<rect x="36.257" y="70.563" fill="#6CACB3" width="6.919" height="5.345"/>
	<rect x="91.864" y="70.563" fill="#6CACB3" width="44.216" height="5.345"/>
	<rect x="84.937" y="31.017" fill="#6CACB3" width="13.66" height="5.345"/>
	<rect x="143.91" y="31.017" fill="#E75300" width="13.66" height="5.345"/>
	<rect x="32.646" y="53.573" fill="#E75300" width="25.934" height="11.601"/>
	<rect x="69.594" y="53.573" fill="#EDAA00" width="88.03" height="11.601"/>
	<rect x="29.578" y="53.573" fill="#EDAA00" width="13.66" height="2.672"/>
	<path fill="#FFFFFF" d="M126.391,61.256c-12.138,0-21.979-13.164-21.979-13.164s9.84-13.147,21.979-13.147
		c12.139,0,21.979,13.147,21.979,13.147S138.53,61.256,126.391,61.256z"/>
	<path fill="#E75300" d="M132.467,48.091c0,3.373-2.717,6.076-6.076,6.076c-3.342,0-6.067-2.703-6.067-6.076
		c0-3.328,2.725-6.049,6.067-6.049C129.751,42.042,132.467,44.763,132.467,48.091z"/>
	<rect x="47.322" y="65.174" fill="#6CACB3" width="44.543" height="5.389"/>
	<rect x="208.609" y="65.174" fill="#6CACB3" width="30.114" height="5.389"/>
	<rect x="274.309" y="39.946" fill="#EDAA00" width="13.66" height="2.672"/>
	<rect x="268.135" y="58.914" fill="#E75300" width="29.932" height="11.601"/>
	<rect x="253.609" y="58.914" fill="#EDAA00" width="14.526" height="11.601"/>
	<rect x="238.723" y="70.515" fill="#6CACB3" width="40.068" height="5.389"/>
	<rect x="184.082" y="53.586" fill="#6CACB3" width="35.786" height="5.345"/>
	<path fill="#FFFFFF" d="M192.253,56.272L184.5,64.03l-7.771-7.758l-7.859-7.881l7.762-7.758l7.868,7.881l16.325-16.343l7.784,7.758
		L192.253,56.272z"/>
	<rect x="202.879" y="67.869" fill="#E75300" width="13.66" height="2.672"/>
	<g>
		<path fill="#007481" d="M175.118,99.51v7.149c-2.012,1.086-3.892,1.642-5.905,1.642c-5.322,0-7.732-3.257-7.732-8.923
			c0-6.01,3.654-8.791,8.605-8.791c1.8,0,3.125,0.292,5.004,1.165l-1.456,3.813c-1.43-1.138-2.357-1.509-3.734-1.509
			c-2.489,0-3.892,1.404-3.892,5.27c0,4.078,1.509,5.534,4.077,5.534c0.292,0,0.556,0,0.847-0.053V99.51H175.118z"/>
		<path fill="#007481" d="M190.716,103.587l1.06,3.23c-1.695,0.927-3.23,1.482-5.799,1.482c-3.416,0-6.858-1.827-6.858-6.778
			c0-4.104,3.045-6.619,6.407-6.619c3.601,0,6.302,1.774,6.302,6.911c0,0.291,0,0.582-0.026,0.9h-8.341
			c0.45,1.933,2.039,2.33,3.521,2.33C188.121,105.043,189.63,104.461,190.716,103.587z M187.592,100.145
			c0.106-1.721-0.874-2.33-1.933-2.33c-1.429,0-2.091,0.609-2.277,2.33H187.592z"/>
		<path fill="#007481" d="M200.648,108.036h-4.21V95.3h3.839l0.079,1.88c1.298-1.668,2.966-2.277,4.608-2.277
			c2.277,0,4.263,1.271,4.263,4.528v8.605h-4.21v-7.255c0-1.748-0.794-2.065-1.721-2.065s-1.986,0.583-2.648,1.351V108.036z"/>
		<path fill="#007481" d="M222.204,95.3h4.21v12.736h-3.707l-0.212-2.012c-1.297,1.668-2.886,2.277-4.528,2.277
			c-2.277,0-4.263-0.953-4.263-4.528V95.3h4.21v7.388c0,1.8,0.689,2.118,1.483,2.118c0.927,0,2.065-0.794,2.806-1.668V95.3z"/>
		<path fill="#007481" d="M231.208,104.752h3.893v-6.169h-3.893V95.3h8.103v9.453h4.025v3.283h-12.127V104.752z M237.245,88.812
			c1.298,0,2.357,1.06,2.357,2.357c0,1.298-1.059,2.33-2.357,2.33c-1.297,0-2.33-1.033-2.33-2.33
			C234.916,89.872,235.948,88.812,237.245,88.812z"/>
		<path fill="#007481" d="M252.287,108.036h-4.21V95.3h3.839l0.079,1.88c1.298-1.668,2.966-2.277,4.608-2.277
			c2.277,0,4.263,1.271,4.263,4.528v8.605h-4.21v-7.255c0-1.748-0.794-2.065-1.721-2.065c-0.927,0-1.986,0.583-2.648,1.351V108.036z
			"/>
		<path fill="#007481" d="M271.725,94.903c4.475,0,6.911,2.754,6.911,6.672c0,3.734-2.542,6.725-6.885,6.725
			c-4.316,0-6.99-2.542-6.99-6.725C264.761,97.842,267.515,94.903,271.725,94.903z M271.619,105.043
			c2.119,0,2.595-1.085,2.595-3.495c0-1.853-0.476-3.389-2.595-3.389c-1.827,0-2.436,1.271-2.436,3.389
			C269.183,103.905,269.977,105.043,271.619,105.043z"/>
	</g>
	<g>
		<path fill="#AD8E78" d="M161.508,117.017h5.64c6.434,0,8.579,3.045,8.579,8.447c0,4.077-1.244,8.764-8.552,8.764h-5.667V117.017z
			 M165.771,120.486v10.221h1.615c3.521,0,3.787-2.145,3.787-5.057c0-3.363-0.345-5.163-4.157-5.163H165.771z"/>
		<path fill="#AD8E78" d="M177.795,134.228l5.402-17.211h4.792l5.481,17.211h-4.528l-0.953-3.522h-4.952l-0.874,3.522H177.795z
			 M185.42,121.095l-1.562,6.302h3.257L185.42,121.095z"/>
		<path fill="#AD8E78" d="M203.137,124.06l3.045-7.043h4.263l-5.375,10.406v6.805h-4.263v-6.673l-5.561-10.538h4.608L203.137,124.06
			z"/>
	</g>
	<g>
		<path fill="#E75300" d="M223.438,121.598c0-1.959-1.351-3.018-3.072-3.018c-1.324,0-2.727,0.794-3.654,1.827l-1.112-1.377
			c0.847-0.927,2.754-2.251,5.19-2.251c2.674,0,4.819,1.589,4.819,4.581c0,3.521-4.66,8.447-8.128,11.041h8.949v1.827H214.78v-1.483
			C217.984,130.442,223.438,124.987,223.438,121.598z"/>
		<path fill="#E75300" d="M244.385,125.172c0,4.21-1.138,9.32-6.699,9.32c-4.369,0-6.46-3.045-6.46-8.526
			c0-4.899,1.456-9.188,6.646-9.188C242.558,116.779,244.385,120.036,244.385,125.172z M234.641,131.316l5.11-12.313
			c-0.556-0.265-1.218-0.423-2.039-0.423c-3.521,0-4.342,3.442-4.342,6.805C233.37,127.661,233.555,129.912,234.641,131.316z
			 M242.24,125.464c0-2.039-0.186-4.21-1.324-5.561l-5.137,12.366c0.556,0.291,1.244,0.45,2.091,0.45
			C241.552,132.719,242.24,128.906,242.24,125.464z"/>
		<path fill="#E75300" d="M249.286,132.401h4.845v-13.636l-3.865,0.185v-1.853l5.958-0.292v15.596h4.554v1.827h-11.491V132.401z"/>
		<path fill="#E75300" d="M272.377,134.493c-4.449,0-6.038-3.336-6.038-8.208c0-5.958,3.496-9.48,9.162-9.48
			c0.583,0,1.192,0.026,1.827,0.106v1.906c-0.635-0.106-1.244-0.159-1.853-0.159c-3.68,0-6.699,2.039-6.937,6.54
			c1.244-0.821,2.674-1.376,4.475-1.376c2.86,0,5.11,1.589,5.11,4.819C278.123,132.137,276.031,134.493,272.377,134.493z
			 M272.324,125.596c-1.562,0-2.965,0.689-3.839,1.403c0.053,3.072,0.821,5.719,4.104,5.719c2.41,0,3.389-1.827,3.389-3.733
			C275.978,126.629,274.839,125.596,272.324,125.596z"/>
	</g>
</g>
</svg>
