<?xml version="1.0" encoding="utf-8"?>
<!-- Generator: Adobe Illustrator 20.1.0, SVG Export Plug-In . SVG Version: 6.00 Build 0)  -->
<svg version="1.1" xmlns="http://www.w3.org/2000/svg" xmlns:xlink="http://www.w3.org/1999/xlink" x="0px" y="0px"
	 width="557.972px" height="259.487px" viewBox="0 0 557.972 259.487" enable-background="new 0 0 557.972 259.487"
	 xml:space="preserve">
<g id="LOGO">
	<path fill="#00878F" d="M360.621,181.691l7.414-23.626h6.579l7.524,23.626h-6.215l-1.309-4.834h-6.796l-1.199,4.834H360.621z
		 M371.089,163.662l-2.144,8.651h4.47L371.089,163.662z"/>
	<path fill="#00878F" d="M385.884,158.064h9.523c6.542,0,9.014,3.344,9.014,7.888c0,3.234-1.308,5.706-3.888,7.087l4.615,8.651
		h-6.906l-3.562-7.487h-2.945v7.487h-5.852V158.064z M398.206,165.988c0-2.108-0.764-3.162-3.49-3.162h-2.98v6.687h3.09
		C396.861,169.514,398.206,168.606,398.206,165.988z"/>
	<path fill="#00878F" d="M409.15,158.064h7.741c8.832,0,11.777,4.181,11.777,11.595c0,5.598-1.708,12.031-11.74,12.031h-7.778
		V158.064z M415.002,162.827v14.03h2.216c4.835,0,5.198-2.945,5.198-6.943c0-4.615-0.473-7.087-5.706-7.087H415.002z"/>
	<path fill="#00878F" d="M445.971,158.064h5.634v15.521c0,6.979-5.342,8.469-9.522,8.469c-4.035,0-9.196-1.345-9.196-8.506v-15.484
		h5.852v14.394c0,3.926,1.381,4.834,3.598,4.834c2.653,0,3.634-1.199,3.634-4.798V158.064z"/>
	<path fill="#00878F" d="M456.84,176.857h6.106v-13.957h-6.106v-4.835h18.101v4.835h-6.143v13.957h6.143v4.834H456.84V176.857z"/>
	<path fill="#00878F" d="M485.303,181.691h-5.525v-23.626h6.362l7.669,14.176v-14.176h5.452v23.626h-5.924l-8.07-15.12
		L485.303,181.691z"/>
	<path fill="#00878F" d="M523.179,169.878c0,6.833-2.508,12.177-10.105,12.177c-6.797,0-9.923-4.108-9.923-11.922
		c0-7.124,2.726-12.395,9.887-12.395C519.762,157.737,523.179,160.863,523.179,169.878z M516.964,169.878
		c0-5.779-0.473-7.379-3.926-7.379c-3.126,0-3.671,1.854-3.671,7.633c0,4.761,0.327,7.16,3.707,7.16
		C516.492,177.292,516.964,175.33,516.964,169.878z"/>
	<g>
		<path fill="#62AEB2" d="M174.248,76.52l0.872-1.612c-8.086-4.307-16.404-7.133-24.768-8.328c-3.465-0.491-6.956-0.74-10.377-0.74
			c-27.598,0-52.288,16.601-61.44,41.308l8.883,3.289c7.781-21.009,28.903-35.124,52.558-35.124c2.978,0,6.021,0.217,9.042,0.645
			c16.037,2.291,31.447,11.039,45.803,26l5.229-5.018C192.984,89.39,184.363,81.991,174.248,76.52z"/>
		<path fill="#62AEB2" d="M109.489,187.137c-23.789-11.059-39.16-34.446-39.16-59.582c0-12.716,3.727-25.022,10.776-35.588
			c2.682-4.024,5.851-7.796,9.416-11.21l4.367,4.562c-3.233,3.094-6.103,6.509-8.53,10.15c-6.355,9.526-9.715,20.62-9.715,32.085
			c0,23.038,13.605,43.675,35.508,53.855L109.489,187.137z"/>
		<path fill="#62AEB2" d="M225.371,135.311l-2.738-6.389c-0.25-0.493-0.595-1.154-1.013-1.933
			c-4.795,9.08-30.021,53.416-71.498,59.339c-3.387,0.484-6.88,1.592-10.183,1.592c-9.66-0.004-18.926-2.037-27.538-6.044
			l-3.162,5.795c9.61,4.471,19.938,6.739,30.705,6.743c3.651,0,7.397-0.271,11.134-0.805c40.02-5.716,65.279-42.317,74.582-58.423
			L225.371,135.311z"/>
		<path fill="#E47128" d="M234.145,166.17c-8.114,11.026-17.068,20.572-26.674,28.371l2.318,2.854
			c9.499-7.713,18.374-17.07,26.441-27.847c16.509,22.525,43.977,49.245,83.794,54.929l0.943-6.603
			c-40.696-5.811-67.953-34.586-84.16-59.075C236.044,157.644,234.145,166.17,234.145,166.17z"/>
		<path fill="#E5AD24" d="M340.499,193.62c-5.256,0.344-10.605,0.145-15.971-0.622c-12.228-1.748-24.078-6.63-35.223-14.511
			l-3.465,4.898c11.929,8.436,24.659,13.668,37.838,15.552c3.966,0.567,7.967,0.854,11.891,0.854c1.651,0,3.293-0.063,4.93-0.163
			V193.62z"/>
		<path fill="#E47128" d="M228.54,133.952l-3.17,1.358l-2.738-6.389c-2.051-4.038-9.736-18.259-22.584-31.983l-5.229,5.018
			c11.268,11.742,18.037,23.381,20.425,27.84l9.612,16.774l8.217-4.711L228.54,133.952z"/>
		<path fill="#62AEB2" d="M335.57,188.282c-3.405,0-6.858-0.248-10.263-0.738c-42.807-6.113-67.851-49.576-72.436-58.228l6.623-3.51
			c2.628,4.957,26.83,48.599,66.878,54.318c3.056,0.439,6.148,0.663,9.198,0.663V188.282z"/>
		<path fill="#00878F" d="M395.216,110.855c-2.853-9.264-8.175-17.812-15.393-24.721c-9.459-9.048-21.471-14.832-34.738-16.726
			l1.213-8.492c15.051,2.147,28.694,8.725,39.456,19.02c8.272,7.918,14.379,17.736,17.661,28.394L395.216,110.855z"/>
		<path fill="#00878F" d="M280.624,83.566l-4.043-4.604c14.56-12.787,30.402-20.478,47.089-22.858
			c3.94-0.563,7.934-0.849,11.867-0.849c20.32,0,39.357,7.507,53.603,21.139l-4.236,4.428
			c-13.101-12.535-30.633-19.439-49.367-19.439c-3.645,0-7.346,0.266-11.001,0.788C309.048,64.38,294.274,71.579,280.624,83.566z"/>
		<path fill="#E5AD24" d="M249.498,143.243l-21.253-10.11l5.055-10.627c3.283-6.899,15.691-30.904,37.54-50.085l8.844-7.764
			l15.527,17.688l-8.844,7.764c-18.944,16.63-29.825,38.328-31.813,42.509L249.498,143.243z"/>
		<path fill="#00878F" d="M69.598,155.932c-3.925-8.957-5.915-18.505-5.915-28.377c0-19.555,7.901-37.88,22.248-51.602
			c5.012-4.794,10.668-8.883,16.812-12.153l3.455,6.49c-5.55,2.955-10.659,6.648-15.186,10.978
			c-12.882,12.32-19.977,28.759-19.977,46.287c0,8.851,1.782,17.404,5.296,25.426L69.598,155.932z"/>
		<path fill="#E5AD24" d="M94.924,85.359l-4.439-4.643c13.137-12.562,30.713-19.48,49.489-19.48c3.66,0,7.372,0.265,11.032,0.787
			c8.964,1.281,17.812,4.258,26.297,8.846l-3.055,5.65c-7.816-4.226-15.941-6.963-24.151-8.137
			c-3.359-0.479-6.766-0.723-10.123-0.723C122.86,67.66,106.861,73.946,94.924,85.359z"/>
		<path fill="#E5AD24" d="M50.936,127.555h-3.922c0-24.146,9.729-46.749,27.395-63.645l2.711,2.834
			C60.235,82.894,50.936,104.489,50.936,127.555z"/>
		<path fill="#00878F" d="M206.135,60.513c-15.847-12.668-33.217-20.424-51.628-23.053c-4.822-0.688-9.712-1.036-14.533-1.036
			c-19.073,0-37.384,5.363-52.953,15.511l-2.855-4.381c16.42-10.703,35.719-16.36,55.809-16.36c5.067,0,10.206,0.366,15.273,1.089
			c19.349,2.763,37.568,10.887,54.154,24.145L206.135,60.513z"/>
		<path fill="#00878F" d="M242.918,94.461L232.6,87.18c16.506-23.396,45.024-52.546,87.145-58.56l1.785,12.502
			C283.868,46.5,257.993,73.096,242.918,94.461z"/>
		<path fill="#62AEB2" d="M254.732,95.968l-7.301-5.52c14.446-19.11,39.062-42.947,74.293-47.974
			c4.582-0.655,9.23-0.987,13.814-0.987c11.874,0,23.376,2.166,34.186,6.438l-3.363,8.512c-9.735-3.847-20.105-5.797-30.823-5.797
			c-4.151,0-8.363,0.302-12.52,0.896C290.873,56.122,268.141,78.23,254.732,95.968z"/>
		<path fill="#62AEB2" d="M240.013,110.87l-10.215-4.158l3.037-7.463l0.262-0.413c13.188-20.874,42.108-56.862,87.627-63.356
			c4.915-0.702,9.899-1.058,14.814-1.058v11.029c-4.394,0-8.854,0.319-13.254,0.947c-38.844,5.542-64.693,34.458-79.603,57.918
			L240.013,110.87z"/>
		<path fill="#62AEB2" d="M239.839,99.566l-5.285-6.484c-8.783-12.447-18.619-23.061-29.235-31.549l4.898-6.128
			c11.16,8.922,21.479,20.038,30.667,33.04l5.031,6.158L239.839,99.566z"/>
		<path fill="#E47128" d="M402.163,62.79c-17.769-17.003-41.43-26.366-66.625-26.366c-4.817,0-9.706,0.349-14.53,1.036l-0.738-5.178
			c5.067-0.723,10.205-1.089,15.269-1.089c26.549,0,51.494,9.879,70.24,27.817L402.163,62.79z"/>
		<path fill="#00878F" d="M153.232,208.705l-1.906-13.346c53.362-7.618,79.951-69.773,80.213-70.4
			c1.182-2.841,29.705-69.851,90.745-78.562l1.904,13.346c-53.525,7.638-79.944,69.772-80.205,70.399
			C242.797,132.992,214.256,199.992,153.232,208.705z"/>
		<path fill="#00878F" d="M97.163,195.213l5.853-10.072c14.362,8.344,31.006,11.457,48.135,9.006l1.65,11.526
			c11.158-1.593,22.06-5.413,32.401-11.352l-9.766-17.004c-8.176,4.696-16.726,7.706-25.413,8.946
			c-3.368,0.481-6.759,0.725-10.084,0.725c-16.981-0.001-32.855-6.243-44.698-17.576c-5.736-5.49-10.21-11.846-13.295-18.889
			l-16.833,7.373c4.018,9.171,9.881,17.582,17.419,24.796l-0.848,0.886C86.399,188.089,91.597,191.976,97.163,195.213z"/>
		<path fill="#00878F" d="M139.944,211.724c-23.386-0.001-45.333-8.682-61.805-24.441l3.701-3.868
			c15.471,14.803,36.104,22.955,58.098,22.956c4.24,0,8.554-0.31,12.827-0.921c44.007-6.285,70.608-43.525,82.582-65.257
			l3.037-7.189l4.932,2.084l-3.211,7.564c-12.424,22.588-40.193,61.472-86.582,68.096
			C148.999,211.396,144.431,211.724,139.944,211.724z"/>
		<path fill="#00878F" d="M139.944,226.206c-27.139-0.004-52.641-10.112-71.815-28.463l6.779-7.084
			c17.341,16.597,40.436,25.738,65.031,25.742c4.719,0,9.51-0.344,14.243-1.022c18.344-2.621,35.622-10.432,51.357-23.216
			l6.182,7.609c-17.134,13.92-36.025,22.437-56.15,25.312C150.38,225.828,145.123,226.206,139.944,226.206z"/>
		<path fill="#E5AD24" d="M154.618,218.41l-1.213-8.492c39.533-5.645,65.689-35.059,80.683-58.772
			c0.459-0.796,4.496-7.801,6.042-10.741l7.594,3.992c-1.712,3.255-6.065,10.794-6.25,11.113l-0.087,0.146
			C225.434,180.909,197.432,212.297,154.618,218.41z"/>
		<path fill="#62AEB2" d="M97.475,194.678c-24.613-14.292-39.307-39.385-39.307-67.123c0-4.036,0.317-8.083,0.944-12.027
			l6.051,0.961c-0.575,3.628-0.868,7.351-0.868,11.066c0,25.529,13.554,48.642,36.256,61.824L97.475,194.678z"/>
		<path fill="#E47128" d="M67.95,116.93l-11.623-1.844c3.364-21.195,15.08-39.924,32.991-52.735
			c18.191-13.013,40.842-18.38,63.796-15.105c5.169,0.739,10.318,1.945,15.307,3.584l-3.674,11.18
			c-4.335-1.424-8.809-2.472-13.297-3.114C110.723,53.099,74.037,78.578,67.95,116.93z"/>
		<path fill="#E5AD24" d="M66.435,199.514c-10.731-10.267-18.858-22.326-24.156-35.843l13.691-5.367
			c4.514,11.515,11.455,21.805,20.631,30.584L66.435,199.514z"/>
		<path fill="#62AEB2" d="M139.944,219.463c-25.394-0.003-49.241-9.446-67.157-26.591C56.48,177.267,46.59,156.488,44.94,134.365
			l-0.009-0.159l-0.242-6.491l8.572-0.32l0.239,6.41c1.51,19.977,10.464,38.75,25.218,52.87
			c16.312,15.609,38.054,24.207,61.221,24.21c4.453,0,8.982-0.325,13.465-0.967l1.215,8.492
			C149.735,219.108,144.797,219.463,139.944,219.463z"/>
		<path fill="#E5AD24" d="M179.33,189.473l-2.665-4.643l2.321-1.332c30.275-17.379,47.186-50.602,50.269-57.085l1.149-2.417
			l4.834,2.299l-1.149,2.417c-3.202,6.735-20.781,41.258-52.436,59.429L179.33,189.473z"/>
		<path fill="#00878F" d="M246.211,124.039c-0.268-0.642-2.177-5.146-5.808-11.729l1.363-0.751
			c-12.627-22.914-40.847-62.358-87.973-69.085c-4.584-0.655-9.234-0.987-13.82-0.987v9.152c4.154,0,8.368,0.302,12.526,0.896
			c5.095,0.728,9.944,1.895,14.571,3.399l-3.348,10.179c43.5,14.308,65.375,65.454,65.586,65.956
			c1.206,2.899,30.249,71.119,92.633,80.023l2.586-18.121C272.55,185.552,246.465,124.644,246.211,124.039z"/>
		<path fill="#E5AD24" d="M417.934,127.555h-7.353c0-20.25-8.935-39.615-24.514-53.13c-16.736-14.519-39.445-20.973-62.312-17.715
			l-1.037-7.279c24.973-3.564,49.821,3.524,68.168,19.439C408.075,83.782,417.934,105.172,417.934,127.555z"/>
		<rect x="130.665" y="96.712" fill="#E5AD24" width="19.887" height="61.699"/>
		<rect x="109.76" y="117.619" fill="#00878F" width="61.695" height="19.89"/>
		<path fill="#62AEB2" d="M436.173,136.543l-7.859-0.729c0.251-2.714,0.379-5.492,0.379-8.26c0-24.208-9.749-46.866-27.451-63.803
			l5.457-5.703c19.273,18.439,29.887,43.124,29.887,69.506C436.585,130.564,436.447,133.588,436.173,136.543z"/>
		<path fill="#00878F" d="M409.132,141.136l-5.131-1.02c0.824-4.148,1.242-8.411,1.242-12.669c0-17.818-7.21-34.53-20.301-47.057
			l3.615-3.779c14.133,13.523,21.916,31.577,21.916,50.836C410.474,132.047,410.022,136.652,409.132,141.136z"/>
		<path fill="#E47128" d="M400.147,142.396l-11.875-3.027c0.978-3.834,1.473-7.809,1.474-11.814
			c0-28.039-24.317-50.851-54.208-50.851c-2.91,0-5.886,0.213-8.845,0.632c-0.783,0.112-1.564,0.241-2.342,0.384l-2.211-12.055
			c0.938-0.172,1.877-0.326,2.827-0.462c3.532-0.501,7.087-0.755,10.57-0.755c36.648,0,66.464,28.311,66.464,63.107
			C402,132.581,401.376,137.573,400.147,142.396z"/>
		<path fill="#00878F" d="M301.957,79.468l-1.413-2.549c-28.136,15.598-44.606,46.13-47.623,52.093l-2.98,6.064l-3.151-1.549
			l-1.299,2.885l11.18,5.02l5.012-11.162c2.948-5.463,25.839-45.765,62.673-52.552l-1.108-6.016
			C316.017,73.038,308.868,75.64,301.957,79.468z"/>
		<path fill="#62AEB2" d="M335.57,214.562c-4.619,0-9.324-0.338-13.984-1.004c-20.805-2.971-40.108-12.638-57.375-28.732l7.52-8.068
			c15.586,14.527,32.885,23.235,51.415,25.882c4.951,0.706,9.925,0.976,14.811,0.861l0.258,11.027
			C337.333,214.549,336.453,214.562,335.57,214.562z"/>
	</g>
</g>
<g id="TITLE">
	<g>
		<path fill="#8C7965" d="M361.988,192.426h7.881c8.992,0,11.989,4.256,11.989,11.804c0,5.698-1.739,12.248-11.952,12.248h-7.918
			V192.426z M367.945,197.273v14.283h2.257c4.922,0,5.292-2.998,5.292-7.068c0-4.699-0.481-7.215-5.81-7.215H367.945z"/>
		<path fill="#8C7965" d="M383.854,216.478l7.548-24.052h6.697l7.66,24.052h-6.327l-1.333-4.921h-6.919l-1.221,4.921H383.854z
			 M394.51,198.124l-2.183,8.807h4.551L394.51,198.124z"/>
		<path fill="#8C7965" d="M417.783,202.269l4.255-9.843h5.958l-7.512,14.542v9.51h-5.957v-9.324l-7.771-14.728h6.438
			L417.783,202.269z"/>
	</g>
	<g>
		<path fill="#E47128" d="M450.654,199.377c0-2.738-1.887-4.218-4.292-4.218c-1.85,0-3.812,1.109-5.106,2.553l-1.554-1.924
			c1.184-1.295,3.848-3.146,7.252-3.146c3.737,0,6.735,2.221,6.735,6.401c0,4.922-6.513,11.804-11.36,15.431h12.507v2.553h-16.281
			v-2.072C443.032,211.736,450.654,204.113,450.654,199.377z"/>
		<path fill="#E47128" d="M478.441,204.372c0,5.884-1.591,13.025-9.361,13.025c-6.105,0-9.029-4.256-9.029-11.915
			c0-6.846,2.035-12.84,9.288-12.84C475.888,192.643,478.441,197.194,478.441,204.372z M464.824,212.957l7.142-17.206
			c-0.776-0.37-1.702-0.592-2.849-0.592c-4.922,0-6.068,4.81-6.068,9.51C463.048,207.851,463.307,210.996,464.824,212.957z
			 M475.444,204.779c0-2.849-0.259-5.883-1.851-7.771l-7.178,17.28c0.776,0.407,1.738,0.629,2.923,0.629
			C474.482,214.918,475.444,209.59,475.444,204.779z"/>
		<path fill="#E47128" d="M483.804,214.475h6.771v-18.354l-6.143,1.221v-2.405l9.065-2.257v21.795h7.104v2.553h-16.799V214.475z"/>
		<path fill="#E47128" d="M522.432,194.752l-10.397,22.238h-2.923l10.064-21.425h-12.84v-2.59h16.096V194.752z"/>
	</g>
</g>
</svg>
