<?xml version="1.0" encoding="utf-8"?>
<!-- Generator: Adobe Illustrator 15.1.0, SVG Export Plug-In . SVG Version: 6.00 Build 0)  -->
<!DOCTYPE svg PUBLIC "-//W3C//DTD SVG 1.1//EN" "http://www.w3.org/Graphics/SVG/1.1/DTD/svg11.dtd">
<svg version="1.1" id="Layer_1" xmlns="http://www.w3.org/2000/svg" xmlns:xlink="http://www.w3.org/1999/xlink" x="0px" y="0px"
	 width="623.622px" height="190.432px" viewBox="0 0 623.622 190.432" enable-background="new 0 0 623.622 190.432"
	 xml:space="preserve">
<g>
	<path fill="#F7842D" d="M35.18,153.744l-4.22-11.824l0,18.22c0,0.358-0.129,0.671-0.385,0.938
		c-0.257,0.268-0.553,0.402-0.888,0.402c-0.379,0-0.697-0.134-0.955-0.402c-0.257-0.268-0.385-0.581-0.386-0.938v-22.54H32.2
		l4.119,11.756l4.12-11.756l3.853,0l0,22.541c0,0.357-0.129,0.67-0.386,0.938c-0.257,0.267-0.575,0.401-0.955,0.401
		c-0.334,0-0.631-0.134-0.887-0.401c-0.257-0.269-0.385-0.582-0.386-0.939l0.001-18.22l-4.22,11.824H35.18z"/>
	<path fill="#F7842D" d="M51.155,151.801h6.463l-2.646-11.655l-1.139,0L51.155,151.801z M62.208,159.739
		c0.088,0.379,0.033,0.72-0.168,1.021c-0.201,0.302-0.469,0.485-0.804,0.553c-0.313,0.067-0.625,0.011-0.938-0.167
		c-0.312-0.178-0.523-0.458-0.636-0.837l-1.44-5.928l-7.636,0l-1.441,5.929c-0.112,0.423-0.307,0.714-0.586,0.87
		c-0.279,0.156-0.585,0.201-0.921,0.134c-0.424-0.089-0.725-0.279-0.903-0.57c-0.179-0.289-0.224-0.624-0.134-1.004l5.191-22.138
		l5.158-0.001L62.208,159.739z"/>
	<path fill="#F7842D" d="M76.577,137.399c0.402-0.043,0.725,0.023,0.971,0.202c0.244,0.179,0.407,0.436,0.485,0.771
		c0.078,0.334,0.005,0.659-0.217,0.97l-5.826,8.642l6.863,11.488c0.201,0.312,0.251,0.647,0.151,1.004
		c-0.101,0.358-0.308,0.625-0.62,0.804c-0.312,0.178-0.636,0.222-0.971,0.134c-0.335-0.089-0.614-0.313-0.836-0.67l-6.194-10.382
		l-1.909,2.779v7c0,0.38-0.134,0.693-0.402,0.938c-0.267,0.246-0.568,0.369-0.903,0.369c-0.379,0-0.687-0.123-0.921-0.369
		c-0.234-0.245-0.352-0.558-0.352-0.938l0-21.771c0-0.38,0.118-0.692,0.352-0.938c0.234-0.245,0.541-0.368,0.92-0.368
		c0.335-0.001,0.637,0.123,0.904,0.368c0.268,0.246,0.402,0.559,0.402,0.938v10.148l7.232-10.617
		C75.885,137.612,76.175,137.445,76.577,137.399"/>
	<path fill="#F7842D" d="M82.643,138.941c-0.001-0.357,0.11-0.67,0.334-0.939c0.223-0.267,0.525-0.4,0.904-0.4l9.308,0
		c0.334,0,0.629,0.134,0.886,0.401c0.256,0.268,0.385,0.582,0.385,0.938c0,0.38-0.128,0.681-0.385,0.903
		c-0.256,0.224-0.552,0.336-0.886,0.335l-3.416,0l-0.001,18.119h3.416c0.334,0,0.63,0.134,0.887,0.402
		c0.256,0.267,0.385,0.581,0.385,0.937c0,0.38-0.128,0.682-0.386,0.904c-0.256,0.223-0.551,0.335-0.886,0.335l-9.308,0
		c-0.826,0.001-1.238-0.412-1.238-1.24c0-0.356,0.111-0.668,0.334-0.938c0.224-0.267,0.525-0.401,0.904-0.401h3.415l0.001-18.119
		l-3.416-0.001C83.055,140.18,82.643,139.768,82.643,138.941"/>
	<path fill="#F7842D" d="M110.82,137.434c0.257-0.246,0.563-0.369,0.921-0.368c0.356,0,0.664,0.123,0.921,0.368
		c0.256,0.246,0.384,0.558,0.384,0.938v22.541l-3.985,0l-6.196-18.823l0,18.085c0,0.358-0.129,0.67-0.385,0.938
		c-0.257,0.268-0.564,0.402-0.921,0.402c-0.357,0-0.665-0.134-0.921-0.402c-0.257-0.267-0.385-0.58-0.385-0.938v-22.574l3.852,0
		l6.33,19.191v-18.421C110.435,137.991,110.563,137.68,110.82,137.434"/>
	<path fill="#F7842D" d="M128.722,143.629c0-0.804-0.151-1.445-0.452-1.926c-0.301-0.479-0.658-0.854-1.072-1.122
		c-0.413-0.268-0.849-0.447-1.305-0.535c-0.458-0.09-0.844-0.135-1.156-0.135c-0.313,0-0.698,0.044-1.156,0.134
		c-0.457,0.089-0.903,0.268-1.339,0.535c-0.435,0.269-0.803,0.648-1.105,1.139c-0.3,0.491-0.453,1.139-0.452,1.942v11.221
		c0,0.803,0.151,1.452,0.452,1.943c0.302,0.491,0.67,0.865,1.105,1.122c0.436,0.257,0.882,0.43,1.34,0.519
		c0.458,0.089,0.843,0.134,1.156,0.135c0.312,0,0.697-0.045,1.155-0.135c0.457-0.088,0.898-0.268,1.322-0.537
		c0.424-0.268,0.788-0.641,1.089-1.121c0.301-0.479,0.452-1.123,0.452-1.926v-4.32h-4.086c-0.334,0-0.625-0.128-0.871-0.386
		c-0.246-0.256-0.369-0.563-0.369-0.92c0-0.335,0.122-0.625,0.369-0.871c0.245-0.246,0.536-0.369,0.87-0.369l6.666,0l0,6.899
		c0,0.536-0.101,1.16-0.301,1.876c-0.201,0.714-0.559,1.395-1.072,2.042c-0.514,0.647-1.206,1.201-2.077,1.658
		c-0.871,0.458-1.965,0.687-3.282,0.687c-1.295,0-2.362-0.229-3.199-0.687c-0.837-0.458-1.501-1.01-1.993-1.658
		c-0.491-0.647-0.833-1.333-1.021-2.06c-0.19-0.725-0.285-1.356-0.285-1.892l0-11.287c0-0.491,0.095-1.094,0.285-1.808
		c0.189-0.715,0.535-1.402,1.038-2.061c0.503-0.658,1.183-1.216,2.043-1.674c0.859-0.458,1.947-0.687,3.265-0.686
		c1.296,0,2.362,0.229,3.199,0.686c0.838,0.458,1.502,1.017,1.993,1.675c0.491,0.659,0.832,1.345,1.022,2.06
		c0.189,0.714,0.284,1.328,0.285,1.842c0,0.334-0.129,0.63-0.385,0.887c-0.257,0.257-0.553,0.385-0.888,0.385
		c-0.357,0-0.652-0.128-0.887-0.384C128.839,144.261,128.722,143.964,128.722,143.629"/>
	<path fill="#F7842D" d="M106.427,85.884c-4.879,0-8.95-3.449-9.915-8.041l-13.891,0v13.891c4.593,0.964,8.042,5.035,8.042,9.916
		c0,5.597-4.537,10.134-10.135,10.134c-5.597,0-10.135-4.538-10.134-10.135c0-4.879,3.449-8.95,8.041-9.915V77.843l-13.89,0
		c-0.965,4.593-5.037,8.042-9.916,8.042c-5.597,0-10.135-4.537-10.135-10.134c-0.001-5.597,4.538-10.135,10.135-10.136
		c4.878,0,8.951,3.45,9.916,8.042l13.89,0V59.766c-4.592-0.965-8.041-5.036-8.041-9.915c0-5.597,4.537-10.134,10.134-10.134
		c5.598,0,10.135,4.538,10.135,10.134c0,4.879-3.449,8.951-8.042,9.916v13.892l13.892,0c0.965-4.592,5.036-8.042,9.914-8.042
		c5.598,0,10.136,4.538,10.136,10.135C116.563,81.348,112.026,85.885,106.427,85.884 M127.925,110.433l0.001-69.364
		c0-7.022-5.693-12.715-12.715-12.716H45.847c-7.022,0-12.715,5.692-12.715,12.715l-0.001,69.364
		c0,7.023,5.692,12.716,12.715,12.716l69.364,0C122.232,123.148,127.925,117.455,127.925,110.433"/>
</g>
<g>
	<path fill="#00A8E5" d="M484.182,144.428c0.001-0.782-0.133-1.418-0.401-1.91s-0.597-0.871-0.988-1.139
		c-0.39-0.268-0.799-0.446-1.223-0.536c-0.424-0.088-0.792-0.134-1.104-0.133l-4.355,0v18.153h4.421
		c0.313,0,0.682-0.044,1.106-0.134c0.424-0.088,0.819-0.268,1.188-0.536c0.368-0.268,0.683-0.642,0.938-1.122
		c0.256-0.48,0.385-1.122,0.386-1.926L484.182,144.428z M486.761,155.178c0,0.537-0.078,1.162-0.233,1.876
		c-0.157,0.715-0.465,1.401-0.921,2.06c-0.459,0.658-1.09,1.211-1.894,1.658c-0.804,0.446-1.842,0.669-3.115,0.669h-7.067
		l0.001-23.311h6.934c1.294,0,2.355,0.229,3.182,0.687c0.825,0.458,1.469,1.01,1.925,1.658c0.458,0.648,0.771,1.329,0.938,2.043
		c0.167,0.715,0.252,1.317,0.251,1.808V155.178z"/>
	<path fill="#00A8E5" d="M502.234,144.428c0-0.781-0.135-1.418-0.402-1.91c-0.269-0.491-0.591-0.871-0.972-1.138
		c-0.38-0.268-0.781-0.446-1.204-0.536c-0.426-0.088-0.793-0.134-1.105-0.133l-4.355,0v8.44h4.421c0.313,0,0.683-0.044,1.106-0.134
		c0.424-0.088,0.82-0.267,1.188-0.535c0.369-0.268,0.683-0.648,0.939-1.14c0.256-0.49,0.384-1.139,0.385-1.942V144.428z
		 M494.229,160.706c-0.001,0.357-0.134,0.669-0.402,0.938c-0.267,0.268-0.569,0.401-0.903,0.401c-0.357,0-0.665-0.134-0.921-0.402
		c-0.258-0.267-0.386-0.58-0.387-0.937l0.001-22.541l6.934,0.001c1.293,0,2.354,0.222,3.181,0.669
		c0.827,0.447,1.468,0.994,1.926,1.642c0.458,0.647,0.771,1.323,0.938,2.027c0.168,0.702,0.252,1.312,0.251,1.824l0.001,1.105
		c0,0.447-0.068,0.956-0.201,1.525c-0.134,0.568-0.357,1.138-0.67,1.708c-0.313,0.569-0.736,1.099-1.272,1.59
		c-0.536,0.492-1.218,0.882-2.043,1.173l3.818,8.808c0.156,0.381,0.151,0.726-0.018,1.039c-0.167,0.312-0.385,0.524-0.653,0.636
		c-0.289,0.112-0.608,0.112-0.955,0s-0.596-0.346-0.753-0.703l-4.152-9.512h-3.718V160.706z"/>
	<path fill="#00A8E5" d="M513.085,152.36l6.463,0.001l-2.645-11.651h-1.139L513.085,152.36z M524.137,160.295
		c0.089,0.379,0.034,0.719-0.167,1.021c-0.201,0.301-0.47,0.484-0.804,0.552c-0.313,0.067-0.626,0.011-0.939-0.167
		c-0.312-0.178-0.523-0.458-0.635-0.837l-1.44-5.925h-7.637l-1.44,5.926c-0.111,0.424-0.307,0.715-0.586,0.87
		c-0.279,0.156-0.585,0.201-0.921,0.134c-0.426-0.089-0.726-0.279-0.904-0.57c-0.178-0.289-0.224-0.625-0.133-1.003l5.192-22.131
		h5.157L524.137,160.295z"/>
	<path fill="#00A8E5" d="M534.419,151.026l-2.177,10.484l-3.483-0.001l-3.349-22.339c-0.045-0.356,0.039-0.691,0.251-1.004
		s0.508-0.491,0.888-0.537c0.38-0.044,0.72,0.04,1.021,0.251c0.302,0.213,0.475,0.519,0.521,0.921l2.545,19.693l2.747-13.396
		l2.109,0l2.713,13.33l2.579-19.693c0.066-0.424,0.273-0.731,0.619-0.921c0.347-0.189,0.675-0.262,0.988-0.218
		c0.38,0.068,0.664,0.252,0.854,0.553c0.188,0.301,0.262,0.643,0.219,1.021l-3.352,22.339l-3.483,0L534.419,151.026z"/>
	<path fill="#00A8E5" d="M546.584,139.504c0-0.357,0.111-0.67,0.335-0.938c0.223-0.268,0.523-0.402,0.903-0.401l9.306,0.001
		c0.334-0.001,0.63,0.134,0.886,0.401c0.258,0.269,0.385,0.582,0.385,0.938c0.001,0.381-0.127,0.681-0.385,0.905
		c-0.256,0.224-0.551,0.334-0.885,0.335h-3.415l0.001,18.118l3.414,0c0.334,0,0.63,0.134,0.887,0.402
		c0.257,0.269,0.384,0.581,0.385,0.938c-0.001,0.38-0.129,0.682-0.385,0.904c-0.257,0.224-0.553,0.334-0.887,0.335l-9.305-0.001
		c-0.826,0-1.239-0.413-1.238-1.24c-0.002-0.357,0.11-0.67,0.334-0.938c0.223-0.267,0.523-0.401,0.904-0.402h3.414l-0.001-18.118
		l-3.414-0.001C546.997,140.744,546.585,140.331,546.584,139.504"/>
	<path fill="#00A8E5" d="M574.762,137.998c0.255-0.246,0.562-0.369,0.92-0.368c0.356,0,0.664,0.123,0.92,0.369
		c0.257,0.245,0.386,0.558,0.386,0.937v22.541l-3.985,0l-6.196-18.822l-0.001,18.086c0,0.356-0.128,0.67-0.385,0.937
		c-0.257,0.268-0.563,0.401-0.921,0.402c-0.356-0.001-0.665-0.134-0.922-0.402c-0.256-0.268-0.383-0.581-0.385-0.937l0.001-22.574
		l3.853,0l6.329,19.191v-18.421C574.376,138.556,574.505,138.244,574.762,137.998"/>
	<path fill="#00A8E5" d="M592.664,144.224c0.001-0.803-0.151-1.444-0.452-1.923s-0.658-0.853-1.071-1.121
		c-0.414-0.267-0.85-0.445-1.306-0.535c-0.458-0.088-0.843-0.134-1.156-0.133c-0.312,0-0.696,0.044-1.155,0.134
		c-0.457,0.09-0.904,0.268-1.34,0.535c-0.436,0.268-0.803,0.647-1.105,1.138c-0.302,0.491-0.452,1.136-0.453,1.939l-0.002,11.202
		c0,0.802,0.151,1.449,0.452,1.938c0.303,0.491,0.67,0.865,1.104,1.121c0.437,0.257,0.883,0.429,1.341,0.518
		s0.843,0.133,1.155,0.133c0.312,0,0.697-0.045,1.155-0.134c0.457-0.089,0.898-0.269,1.323-0.535
		c0.424-0.268,0.787-0.641,1.089-1.12c0.3-0.479,0.452-1.122,0.452-1.923l0.002-4.313l-4.086,0c-0.337,0-0.626-0.128-0.872-0.384
		c-0.246-0.256-0.368-0.563-0.369-0.919c0.001-0.334,0.123-0.625,0.369-0.87c0.246-0.245,0.536-0.368,0.872-0.368l6.664-0.001
		l-0.001,6.888c0,0.534-0.101,1.159-0.302,1.873c-0.2,0.713-0.558,1.393-1.072,2.04c-0.514,0.646-1.207,1.199-2.076,1.655
		c-0.871,0.457-1.965,0.686-3.282,0.687c-1.296,0-2.361-0.229-3.198-0.686c-0.838-0.457-1.502-1.008-1.993-1.655
		c-0.491-0.646-0.832-1.332-1.021-2.056c-0.191-0.724-0.285-1.354-0.285-1.889l0.002-11.269c0-0.49,0.094-1.092,0.286-1.805
		c0.188-0.713,0.535-1.399,1.038-2.056c0.501-0.657,1.184-1.216,2.042-1.673c0.86-0.457,1.948-0.685,3.266-0.686
		c1.295,0,2.362,0.229,3.199,0.685c0.837,0.458,1.501,1.015,1.992,1.671c0.491,0.658,0.832,1.344,1.021,2.057
		s0.284,1.326,0.284,1.838c0,0.334-0.13,0.63-0.385,0.886c-0.257,0.256-0.553,0.384-0.889,0.384c-0.356,0-0.652-0.127-0.887-0.384
		C592.78,144.853,592.664,144.558,592.664,144.224"/>
	<path fill="#00A8E5" d="M507.041,53.687l46.052,46.052l2.96-2.96l-46.051-46.052l8.035-8.035l23.025,23.026l23.026,23.026
		l-0.001,19.084l-19.03-0.053l-23.025-23.026l-23.025-23.026L507.041,53.687z M568.84,28.353h-69.364
		c-7.022,0-12.715,5.692-12.716,12.715l-0.001,69.364c0.001,7.021,5.694,12.715,12.717,12.714l69.364,0.002
		c7.021,0,12.714-5.693,12.714-12.716l0.001-69.363C581.555,34.046,575.862,28.354,568.84,28.353"/>
</g>
<g>
	<path fill="#FFC75D" d="M342.01,155.413c-0.001-0.334,0.116-0.636,0.352-0.904c0.233-0.268,0.529-0.401,0.887-0.402
		c0.356,0,0.663,0.134,0.921,0.401c0.257,0.269,0.386,0.571,0.386,0.906c-0.001,0.536-0.101,1.172-0.303,1.909
		c-0.201,0.737-0.553,1.429-1.054,2.077c-0.502,0.647-1.184,1.2-2.043,1.658c-0.86,0.457-1.948,0.686-3.267,0.687
		c-1.295,0-2.36-0.229-3.197-0.688c-0.838-0.458-1.502-1.01-1.993-1.657s-0.831-1.335-1.022-2.06
		c-0.188-0.726-0.283-1.357-0.284-1.893l0.001-11.286c-0.001-0.491,0.095-1.094,0.285-1.809c0.188-0.715,0.536-1.401,1.037-2.06
		c0.503-0.659,1.185-1.217,2.042-1.674c0.859-0.458,1.949-0.687,3.267-0.687c1.273,0,2.323,0.218,3.148,0.653
		c0.825,0.436,1.49,0.972,1.993,1.608c0.502,0.636,0.854,1.312,1.055,2.026c0.2,0.716,0.302,1.352,0.301,1.91
		c0,0.379-0.128,0.681-0.385,0.905c-0.258,0.223-0.554,0.334-0.887,0.334c-0.357,0-0.655-0.112-0.888-0.335
		c-0.235-0.223-0.354-0.524-0.354-0.905c0.001-0.78-0.149-1.412-0.451-1.891c-0.302-0.48-0.664-0.848-1.088-1.105
		c-0.424-0.256-0.866-0.43-1.322-0.52c-0.459-0.09-0.832-0.134-1.123-0.134c-0.313,0-0.698,0.044-1.156,0.134
		c-0.457,0.089-0.903,0.268-1.338,0.536c-0.438,0.268-0.805,0.648-1.106,1.139s-0.451,1.138-0.452,1.942v11.22
		c0,0.804,0.151,1.452,0.454,1.942c0.3,0.492,0.669,0.865,1.104,1.122s0.882,0.43,1.34,0.519c0.456,0.089,0.842,0.134,1.154,0.134
		c0.313,0,0.697-0.044,1.155-0.133c0.459-0.09,0.894-0.268,1.308-0.537c0.412-0.269,0.771-0.647,1.071-1.139
		C341.858,156.865,342.008,156.217,342.01,155.413"/>
	<path fill="#FFC75D" d="M360.095,144.227c0-0.804-0.151-1.451-0.451-1.942c-0.303-0.491-0.665-0.871-1.09-1.139
		c-0.424-0.269-0.865-0.447-1.323-0.536c-0.457-0.089-0.842-0.134-1.155-0.134c-0.312,0-0.697,0.044-1.155,0.133
		c-0.458,0.09-0.903,0.268-1.34,0.536c-0.435,0.269-0.803,0.648-1.105,1.14c-0.302,0.491-0.452,1.138-0.453,1.942v11.221
		c0.001,0.803,0.151,1.452,0.453,1.941c0.302,0.491,0.67,0.866,1.104,1.123c0.437,0.256,0.882,0.43,1.341,0.52
		c0.459,0.088,0.844,0.133,1.154,0.134c0.314,0,0.7-0.045,1.156-0.134c0.457-0.09,0.892-0.268,1.307-0.537
		c0.413-0.268,0.771-0.642,1.071-1.122c0.303-0.479,0.453-1.123,0.452-1.925L360.095,144.227z M362.673,155.48
		c0.001,0.536-0.101,1.161-0.301,1.875s-0.558,1.396-1.072,2.043c-0.514,0.647-1.205,1.2-2.076,1.658
		c-0.871,0.458-1.966,0.687-3.282,0.687c-1.296,0-2.361-0.229-3.199-0.687c-0.837-0.458-1.501-1.01-1.991-1.658
		c-0.492-0.647-0.833-1.333-1.022-2.06c-0.191-0.725-0.286-1.356-0.286-1.892l0.001-11.287c0.001-0.491,0.095-1.094,0.285-1.809
		c0.189-0.714,0.536-1.401,1.038-2.06s1.185-1.216,2.043-1.674c0.859-0.458,1.948-0.687,3.266-0.687
		c1.295,0,2.367,0.229,3.214,0.687c0.85,0.458,1.524,1.017,2.028,1.675c0.503,0.659,0.854,1.345,1.056,2.06
		c0.199,0.714,0.3,1.329,0.301,1.842L362.673,155.48z"/>
	<path fill="#FFC75D" d="M378.179,144.427c0.001-0.78-0.133-1.417-0.4-1.909c-0.269-0.49-0.598-0.87-0.988-1.139
		c-0.39-0.269-0.798-0.447-1.222-0.536c-0.425-0.089-0.793-0.134-1.105-0.134h-4.356l0.002,18.153l4.42,0
		c0.313,0,0.682-0.044,1.105-0.134c0.425-0.088,0.821-0.267,1.189-0.536c0.367-0.267,0.681-0.641,0.938-1.121
		c0.256-0.48,0.385-1.122,0.384-1.926L378.179,144.427z M380.759,155.179c0,0.536-0.079,1.161-0.235,1.875
		c-0.154,0.714-0.463,1.401-0.92,2.06c-0.46,0.658-1.088,1.211-1.893,1.658c-0.804,0.446-1.843,0.669-3.115,0.67l-7.067,0
		l0.001-23.31l6.934,0c1.293,0,2.354,0.229,3.182,0.687c0.826,0.457,1.467,1.011,1.925,1.658s0.771,1.329,0.938,2.042
		c0.169,0.716,0.251,1.319,0.252,1.809V155.179z"/>
	<path fill="#FFC75D" d="M385.648,139.504c0-0.357,0.111-0.67,0.335-0.938c0.222-0.269,0.524-0.402,0.903-0.402l9.312,0
		c0.334-0.001,0.631,0.134,0.888,0.402c0.255,0.268,0.386,0.581,0.385,0.938c0.001,0.38-0.128,0.682-0.384,0.904
		c-0.257,0.224-0.554,0.335-0.889,0.335l-3.416,0l-0.001,18.12h3.417c0.334,0,0.631,0.134,0.888,0.402
		c0.256,0.269,0.386,0.581,0.385,0.938c0,0.38-0.129,0.681-0.385,0.904c-0.258,0.223-0.553,0.334-0.889,0.334l-9.311,0
		c-0.825,0.001-1.238-0.413-1.238-1.239c0-0.356,0.111-0.668,0.334-0.937c0.224-0.268,0.524-0.402,0.904-0.402l3.415,0l0.001-18.12
		h-3.416C386.062,140.744,385.648,140.331,385.648,139.504"/>
	<path fill="#FFC75D" d="M413.832,137.998c0.256-0.245,0.562-0.369,0.921-0.369c0.355,0.001,0.663,0.124,0.921,0.369
		c0.256,0.247,0.385,0.559,0.385,0.938l-0.001,22.541l-3.985,0l-6.194-18.823l-0.001,18.086c-0.001,0.357-0.129,0.67-0.385,0.938
		c-0.258,0.269-0.565,0.402-0.921,0.403c-0.358-0.001-0.666-0.135-0.922-0.402c-0.256-0.268-0.386-0.58-0.387-0.938l0.002-22.574
		h3.852l6.329,19.191l0.002-18.42C413.447,138.556,413.573,138.244,413.832,137.998"/>
	<path fill="#FFC75D" d="M431.732,144.194c0-0.804-0.15-1.444-0.452-1.926c-0.302-0.479-0.659-0.854-1.071-1.122
		c-0.414-0.268-0.85-0.446-1.306-0.536c-0.459-0.089-0.845-0.134-1.155-0.133c-0.314,0-0.7,0.045-1.157,0.134
		c-0.458,0.09-0.902,0.268-1.339,0.536c-0.436,0.268-0.804,0.648-1.105,1.139c-0.301,0.491-0.452,1.138-0.452,1.942v11.22
		c0,0.803,0.151,1.451,0.451,1.943c0.302,0.491,0.671,0.864,1.105,1.121c0.438,0.258,0.882,0.431,1.341,0.52
		c0.457,0.09,0.842,0.134,1.154,0.134c0.312,0,0.697-0.044,1.157-0.134c0.457-0.089,0.896-0.267,1.322-0.536
		c0.423-0.268,0.786-0.642,1.088-1.122c0.302-0.479,0.453-1.122,0.453-1.925l-0.001-4.32l-4.085,0c-0.335,0-0.626-0.128-0.871-0.385
		c-0.246-0.257-0.368-0.563-0.369-0.921c0-0.335,0.123-0.625,0.369-0.871c0.244-0.245,0.536-0.368,0.87-0.368l6.666,0v6.9
		c-0.001,0.536-0.101,1.161-0.303,1.875c-0.2,0.715-0.558,1.396-1.071,2.043c-0.515,0.647-1.205,1.2-2.077,1.658
		c-0.87,0.458-1.965,0.687-3.282,0.686c-1.295,0-2.36-0.228-3.198-0.686c-0.837-0.459-1.502-1.011-1.992-1.659
		c-0.491-0.647-0.831-1.334-1.021-2.06c-0.189-0.725-0.285-1.356-0.285-1.892V144.16c0-0.491,0.095-1.094,0.285-1.809
		c0.189-0.714,0.536-1.399,1.038-2.059c0.503-0.659,1.184-1.217,2.043-1.675s1.947-0.687,3.265-0.688
		c1.297,0.001,2.362,0.23,3.2,0.687c0.836,0.458,1.501,1.017,1.992,1.675c0.49,0.659,0.832,1.346,1.021,2.06
		c0.189,0.714,0.285,1.329,0.285,1.841c0.001,0.335-0.129,0.632-0.385,0.889c-0.257,0.257-0.554,0.385-0.887,0.385
		c-0.358,0-0.654-0.127-0.889-0.385C431.851,144.825,431.731,144.529,431.732,144.194"/>
	<path fill="#FFC75D" d="M396.072,99.682l-10.149-10.15l14.271-14.271l-14.272-14.273l10.15-10.149l24.421,24.423L396.072,99.682z
		 M369.666,99.682L345.243,75.26l24.423-24.423l10.15,10.15L365.544,75.26l14.271,14.272L369.666,99.682z M430.266,110.432
		l0.002-69.363c-0.001-7.022-5.693-12.716-12.716-12.716h-69.364c-7.022,0-12.716,5.692-12.717,12.714v69.364
		c0,7.022,5.694,12.715,12.716,12.716h69.364C424.572,123.146,430.267,117.455,430.266,110.432"/>
</g>
<g>
	<path fill="#0A3064" d="M162.649,140.392c-0.267-0.257-0.401-0.553-0.401-0.889c0-0.356,0.134-0.668,0.401-0.937
		c0.269-0.269,0.57-0.403,0.905-0.402l12.458,0c0.336,0,0.638,0.134,0.904,0.402c0.269,0.268,0.402,0.581,0.402,0.938
		c0,0.335-0.134,0.631-0.402,0.888c-0.268,0.257-0.568,0.385-0.903,0.384l-4.957,0v19.929c0,0.379-0.117,0.692-0.352,0.938
		c-0.234,0.245-0.542,0.368-0.922,0.368c-0.379,0-0.681-0.123-0.904-0.368c-0.223-0.247-0.334-0.558-0.334-0.938v-19.928h-4.991
		C163.219,140.776,162.918,140.649,162.649,140.392"/>
	<path fill="#0A3064" d="M181.405,137.997c0.223-0.245,0.524-0.369,0.904-0.369c0.379,0,0.691,0.123,0.937,0.369
		c0.246,0.246,0.369,0.559,0.369,0.938v9.009l8.506,0.001v-9.01c0-0.38,0.117-0.692,0.352-0.938
		c0.234-0.246,0.541-0.368,0.921-0.368c0.379,0,0.687,0.123,0.921,0.369c0.234,0.246,0.352,0.558,0.353,0.938l-0.001,21.77
		c0,0.38-0.117,0.692-0.351,0.938c-0.236,0.246-0.543,0.368-0.923,0.368c-0.379,0-0.685-0.123-0.921-0.368
		c-0.233-0.246-0.351-0.557-0.351-0.938v-10.216l-8.506,0v10.215c0,0.38-0.123,0.692-0.369,0.938
		c-0.245,0.246-0.558,0.369-0.937,0.37c-0.381,0-0.682-0.125-0.904-0.369c-0.223-0.246-0.335-0.558-0.335-0.937v-21.771
		C181.07,138.555,181.182,138.243,181.405,137.997"/>
	<path fill="#0A3064" d="M200.029,139.504c0-0.357,0.111-0.669,0.335-0.938c0.223-0.268,0.524-0.402,0.904-0.402h9.309
		c0.334,0,0.63,0.134,0.887,0.401c0.257,0.268,0.385,0.582,0.385,0.938c0.001,0.38-0.128,0.682-0.385,0.905
		s-0.553,0.334-0.887,0.335l-3.415,0l-0.001,18.12h3.416c0.335,0,0.63,0.134,0.887,0.402c0.257,0.268,0.385,0.581,0.386,0.937
		c-0.001,0.38-0.129,0.682-0.385,0.905c-0.258,0.224-0.554,0.335-0.888,0.335l-9.309,0c-0.826,0-1.239-0.413-1.239-1.239
		c0-0.356,0.111-0.669,0.334-0.938c0.224-0.268,0.524-0.402,0.904-0.402l3.416,0.001v-18.12l-3.415,0
		C200.441,140.743,200.029,140.33,200.029,139.504"/>
	<path fill="#0A3064" d="M228.21,137.998c0.257-0.245,0.563-0.368,0.921-0.369c0.356,0,0.664,0.123,0.921,0.369
		s0.385,0.558,0.385,0.937v22.541l-3.985,0l-6.196-18.823v18.086c0,0.357-0.128,0.67-0.385,0.938s-0.564,0.402-0.921,0.401
		c-0.357,0.001-0.664-0.133-0.921-0.401c-0.258-0.269-0.386-0.581-0.386-0.938v-22.575h3.852l6.33,19.191v-18.42
		C227.824,138.555,227.953,138.243,228.21,137.998"/>
	<path fill="#0A3064" d="M246.212,137.964c0.401-0.045,0.725,0.022,0.972,0.2c0.244,0.18,0.406,0.436,0.484,0.771
		c0.078,0.334,0.006,0.659-0.218,0.971l-5.827,8.641l6.866,11.488c0.2,0.313,0.251,0.647,0.15,1.005
		c-0.1,0.357-0.307,0.625-0.62,0.803c-0.312,0.179-0.636,0.223-0.971,0.134c-0.335-0.089-0.614-0.312-0.838-0.669l-6.195-10.382
		l-1.909,2.779l-0.001,7c0.001,0.38-0.134,0.692-0.401,0.938c-0.268,0.245-0.569,0.368-0.903,0.369
		c-0.381-0.001-0.688-0.124-0.922-0.369c-0.233-0.245-0.352-0.558-0.352-0.938v-21.77c0-0.379,0.117-0.691,0.352-0.938
		c0.235-0.245,0.541-0.368,0.922-0.368c0.335,0,0.636,0.123,0.903,0.368c0.268,0.246,0.402,0.558,0.402,0.938v10.148l7.234-10.617
		C245.52,138.176,245.81,138.009,246.212,137.964"/>
	<path fill="#0A3064" d="M251.604,139.504c0-0.356,0.112-0.669,0.335-0.937c0.223-0.269,0.524-0.402,0.904-0.402l9.311,0
		c0.335,0,0.631,0.134,0.888,0.403c0.256,0.268,0.385,0.581,0.386,0.938c-0.001,0.379-0.129,0.681-0.386,0.903
		c-0.258,0.224-0.553,0.335-0.887,0.335h-3.417v18.119h3.416c0.335,0,0.631,0.134,0.888,0.402c0.256,0.268,0.385,0.581,0.385,0.938
		c0,0.38-0.128,0.682-0.385,0.905c-0.257,0.224-0.553,0.334-0.888,0.334l-9.311,0c-0.826,0-1.239-0.414-1.239-1.239
		c0-0.357,0.111-0.669,0.335-0.938c0.223-0.268,0.524-0.402,0.904-0.402h3.416v-18.119h-3.416
		C252.017,140.744,251.604,140.331,251.604,139.504"/>
	<path fill="#0A3064" d="M279.787,137.997c0.256-0.246,0.563-0.368,0.921-0.367c0.357-0.001,0.664,0.122,0.921,0.368
		c0.256,0.246,0.385,0.558,0.385,0.937v22.541l-3.985,0l-6.196-18.824v18.086c0,0.357-0.128,0.67-0.385,0.938
		c-0.257,0.268-0.564,0.402-0.921,0.402c-0.357,0-0.664-0.134-0.922-0.401c-0.257-0.268-0.385-0.58-0.385-0.938v-22.574l3.852,0
		l6.33,19.191l0.001-18.42C279.402,138.556,279.53,138.244,279.787,137.997"/>
	<path fill="#0A3064" d="M297.688,144.194c0.001-0.805-0.149-1.445-0.451-1.927c-0.301-0.479-0.659-0.853-1.071-1.122
		c-0.414-0.268-0.85-0.445-1.307-0.536c-0.458-0.088-0.843-0.133-1.156-0.132c-0.312,0-0.697,0.044-1.155,0.133
		c-0.458,0.09-0.904,0.268-1.34,0.537c-0.436,0.268-0.804,0.647-1.104,1.138c-0.302,0.491-0.452,1.139-0.453,1.943l0.001,11.22
		c-0.001,0.804,0.15,1.452,0.451,1.943c0.302,0.492,0.67,0.865,1.105,1.122c0.436,0.257,0.883,0.43,1.34,0.52
		c0.457,0.089,0.843,0.134,1.155,0.134c0.313,0,0.698-0.045,1.156-0.134c0.457-0.089,0.898-0.268,1.322-0.535
		c0.425-0.269,0.786-0.642,1.089-1.123c0.301-0.48,0.452-1.123,0.452-1.926v-4.321l-4.087,0.001c-0.334,0-0.625-0.129-0.869-0.385
		c-0.246-0.257-0.369-0.564-0.369-0.922c0-0.335,0.122-0.625,0.368-0.871c0.245-0.245,0.537-0.368,0.871-0.368l6.665,0v6.9
		c0,0.535-0.101,1.161-0.302,1.875s-0.559,1.396-1.072,2.043s-1.204,1.2-2.076,1.658c-0.87,0.458-1.965,0.687-3.282,0.687
		c-1.295,0-2.361-0.229-3.198-0.687c-0.837-0.457-1.502-1.011-1.993-1.658c-0.491-0.646-0.832-1.334-1.021-2.059
		c-0.189-0.726-0.284-1.357-0.284-1.893V144.16c0-0.491,0.095-1.094,0.284-1.809s0.536-1.401,1.039-2.059
		c0.502-0.659,1.184-1.218,2.043-1.675c0.859-0.457,1.947-0.687,3.265-0.686c1.295,0,2.361,0.23,3.198,0.686
		c0.838,0.458,1.502,1.017,1.993,1.675c0.491,0.659,0.832,1.346,1.022,2.06c0.189,0.715,0.284,1.329,0.284,1.842
		c0,0.335-0.128,0.631-0.386,0.888c-0.257,0.257-0.553,0.385-0.887,0.385c-0.358,0-0.653-0.128-0.888-0.385
		S297.688,144.528,297.688,144.194"/>
	<path fill="#0A3064" d="M266.427,28.353h-69.365c-7.022,0-12.715,5.692-12.715,12.715v69.364c0,7.023,5.692,12.715,12.715,12.715
		l69.365,0c7.022,0,12.715-5.693,12.715-12.716V41.068C279.142,34.046,273.449,28.353,266.427,28.353 M256.271,66.426
		c0,10.034-6.028,18.656-14.658,22.454v6.195h-19.736V88.88c-8.63-3.799-14.658-12.42-14.658-22.455
		c0-13.545,10.98-24.526,24.526-24.526C245.291,41.899,256.271,52.88,256.271,66.426 M224.212,96.879l19.736,0.001v6.891l-19.736,0
		V96.879z"/>
	<polygon fill="#0A3064" points="231.728,74.86 223.038,66.383 215.812,73.433 212.888,70.437 223.039,60.534 231.728,69.011 
		240.416,60.534 250.567,70.437 247.644,73.433 240.416,66.383 	"/>
</g>
</svg>
