<?xml version="1.0" encoding="utf-8"?>
<!-- Generator: Adobe Illustrator 17.1.0, SVG Export Plug-In . SVG Version: 6.00 Build 0)  -->
<!DOCTYPE svg PUBLIC "-//W3C//DTD SVG 1.1//EN" "http://www.w3.org/Graphics/SVG/1.1/DTD/svg11.dtd">
<svg version="1.1" id="Layer_1" xmlns="http://www.w3.org/2000/svg" xmlns:xlink="http://www.w3.org/1999/xlink" x="0px" y="0px"
	 width="355.784px" height="141.01px" viewBox="0 0 355.784 141.01" enable-background="new 0 0 355.784 141.01"
	 xml:space="preserve">
<g>
	<g>
		<g>
			<path fill="#03979C" d="M22.679,124.242c0,4.838-1.775,8.621-7.154,8.621c-4.812,0-7.025-2.908-7.025-8.441
				c0-5.044,1.929-8.775,7-8.775C20.26,115.646,22.679,117.859,22.679,124.242z M18.279,124.242c0-4.092-0.335-5.224-2.779-5.224
				c-2.214,0-2.599,1.312-2.599,5.404c0,3.371,0.231,5.069,2.625,5.069C17.945,129.491,18.279,128.102,18.279,124.242z"/>
		</g>
		<g>
			<path fill="#03979C" d="M27.618,115.878h6.665c4.632,0,6.382,2.522,6.382,5.739c0,3.551-2.24,6.047-6.716,6.047h-2.187v4.941
				h-4.143V115.878z M36.265,121.745c0-1.312-0.361-2.496-2.471-2.496h-2.032v5.018h2.11
				C35.493,124.267,36.265,123.598,36.265,121.745z"/>
		</g>
		<g>
			<path fill="#03979C" d="M57.904,115.878v3.371h-8.003v3.165h7.282v3.345h-7.282v3.423h7.978v3.422H45.757v-16.727H57.904z"/>
		</g>
		<g>
			<path fill="#03979C" d="M66.934,132.605h-3.911v-16.727h4.503l5.429,10.036v-10.036h3.86v16.727h-4.194L66.909,121.9
				L66.934,132.605z"/>
		</g>
		<g>
			<path fill="#03979C" d="M84.354,127.793v-3.319h7.36v3.319H84.354z"/>
		</g>
		<g>
			<path fill="#03979C" d="M100.023,120.484c0-2.83,2.933-4.838,6.458-4.838c1.878,0,3.449,0.283,5.378,1.338l-1.132,3.783
				c-1.106-1.029-2.496-1.75-4.246-1.75c-1.132,0-2.058,0.335-2.058,1.21c0,2.393,8.157,1.801,8.157,7.514
				c0,3.706-3.448,5.122-7.231,5.122c-1.544,0-3.654-0.232-5.662-1.544l1.365-3.758c1.312,1.209,2.882,1.93,4.735,1.93
				c1.338,0,2.393-0.386,2.393-1.364C108.181,125.297,100.023,126.249,100.023,120.484z"/>
		</g>
		<g>
			<path fill="#03979C" d="M131.365,124.242c0,4.838-1.775,8.621-7.154,8.621c-4.812,0-7.025-2.908-7.025-8.441
				c0-5.044,1.929-8.775,7-8.775C128.946,115.646,131.365,117.859,131.365,124.242z M126.965,124.242
				c0-4.092-0.334-5.224-2.779-5.224c-2.214,0-2.6,1.312-2.6,5.404c0,3.371,0.232,5.069,2.625,5.069
				C126.63,129.491,126.965,128.102,126.965,124.242z"/>
		</g>
		<g>
			<path fill="#03979C" d="M145.001,115.878h3.989v10.988c0,4.941-3.783,5.996-6.743,5.996c-2.856,0-6.51-0.953-6.51-6.022v-10.963
				h4.143v10.191c0,2.779,0.977,3.422,2.547,3.422c1.878,0,2.573-0.849,2.573-3.397V115.878z"/>
		</g>
		<g>
			<path fill="#03979C" d="M154.031,115.878h6.743c4.632,0,6.382,2.367,6.382,5.584c0,2.29-0.926,4.04-2.753,5.018l3.268,6.125
				h-4.89l-2.522-5.301h-2.084v5.301h-4.143V115.878z M162.756,121.488c0-1.493-0.54-2.239-2.471-2.239h-2.11v4.735h2.187
				C161.803,123.984,162.756,123.341,162.756,121.488z"/>
		</g>
		<g>
			<path fill="#03979C" d="M185.142,131.37c-1.956,1.055-3.552,1.492-5.507,1.492c-4.967,0-7.463-3.114-7.463-8.647
				c0-5.455,3.113-8.569,8.029-8.569c1.75,0,3.294,0.437,4.838,1.389l-1.365,3.423c-1.389-1.081-2.367-1.442-3.705-1.442
				c-2.187,0-3.397,1.57-3.397,5.121c0,3.474,1.003,5.378,3.5,5.378c1.569,0,2.804-0.489,4.117-1.39L185.142,131.37z"/>
		</g>
		<g>
			<path fill="#03979C" d="M202.818,115.878v3.371h-8.003v3.165h7.282v3.345h-7.282v3.423h7.978v3.422h-12.121v-16.727H202.818z"/>
		</g>
		<g>
			<path fill="#03979C" d="M226.54,129.183h4.323v-9.882h-4.323v-3.423h12.816v3.423h-4.349v9.882h4.349v3.422H226.54V129.183z"/>
		</g>
		<g>
			<path fill="#03979C" d="M244.938,120.484c0-2.83,2.933-4.838,6.458-4.838c1.878,0,3.449,0.283,5.378,1.338l-1.132,3.783
				c-1.106-1.029-2.496-1.75-4.246-1.75c-1.132,0-2.058,0.335-2.058,1.21c0,2.393,8.157,1.801,8.157,7.514
				c0,3.706-3.449,5.122-7.231,5.122c-1.544,0-3.654-0.232-5.662-1.544l1.365-3.758c1.312,1.209,2.882,1.93,4.735,1.93
				c1.338,0,2.393-0.386,2.393-1.364C253.095,125.297,244.938,126.249,244.938,120.484z"/>
		</g>
		<g>
			<path fill="#03979C" d="M285.952,115.878v13.305h7.694v3.422h-11.838v-16.727H285.952z"/>
		</g>
		<g>
			<path fill="#03979C" d="M312.506,124.242c0,4.838-1.775,8.621-7.154,8.621c-4.812,0-7.025-2.908-7.025-8.441
				c0-5.044,1.929-8.775,7-8.775C310.087,115.646,312.506,117.859,312.506,124.242z M308.106,124.242
				c0-4.092-0.334-5.224-2.779-5.224c-2.214,0-2.6,1.312-2.6,5.404c0,3.371,0.232,5.069,2.625,5.069
				C307.772,129.491,308.106,128.102,308.106,124.242z"/>
		</g>
		<g>
			<path fill="#03979C" d="M323.699,128.719l3.062-12.841h4.272l-4.941,16.727H321.1l-5.069-16.727h4.349L323.699,128.719z"/>
		</g>
		<g>
			<path fill="#03979C" d="M347.732,115.878v3.371h-8.003v3.165h7.282v3.345h-7.282v3.423h7.978v3.422h-12.121v-16.727H347.732z"/>
		</g>
	</g>
</g>
<g>
	<path fill="#8C7965" d="M11.557,104.126l-2.22-0.046l0.724-0.015l-0.724-0.03c0.787-19.49,16.688-34.752,36.202-34.752h0.017v2.22
		h-0.017C27.219,71.503,12.294,85.828,11.557,104.126z"/>
	<path fill="#8C7965" d="M344.676,104.126c-0.735-18.296-15.662-32.623-33.982-32.623c-0.007,0-0.011,0-0.017,0v-2.22
		c0.004,0,0.011,0,0.017,0c19.516,0,35.415,15.259,36.202,34.749v0.048L344.676,104.126z"/>
	<rect x="130.692" y="51.901" fill="#8C7965" width="2.22" height="36.345"/>
	<rect x="59.441" y="52.481" fill="#E75300" width="2.22" height="35.183"/>
	<rect x="65.89" y="53.136" fill="#8C7965" width="2.22" height="33.913"/>
	<rect x="85.096" y="54.194" fill="#007481" width="2.22" height="31.849"/>
	<rect x="289.927" y="51.901" fill="#8C7965" width="2.22" height="36.345"/>
	<rect x="218.679" y="52.481" fill="#007481" width="2.22" height="35.183"/>
	<rect x="225.127" y="53.136" fill="#8C7965" width="2.22" height="33.913"/>
	<rect x="244.333" y="54.194" fill="#E75300" width="2.22" height="31.849"/>
	<g>
		<path fill="#E75300" d="M203.838,70.972c-11.557-0.59-25.648-9.834-26.244-10.226c-30.423-20.348-28.689-38.124-28.6-38.87
			l0.015-0.143c0.468-8.696,7.608-15.476,16.354-15.476c4.55,0,8.666,1.836,11.631,4.823c2.969-2.987,7.086-4.823,11.635-4.823
			c8.817,0,16.003,6.899,16.36,15.704l-1.103,0.046l0.009,1.11h-1.082l-0.043-1.064c-0.308-7.612-6.52-13.575-14.141-13.575
			c-3.995,0-7.601,1.636-10.174,4.287c1.933,2.568,3.128,5.735,3.269,9.197c0,2.66-2.124,4.788-4.736,4.788
			c-2.599,0-4.714-2.126-4.725-4.742l0,0c0-0.007,0-0.015,0-0.022h0.574l-0.574-0.024c0.141-3.461,1.337-6.63,3.275-9.201
			c-2.573-2.647-6.18-4.283-10.174-4.283c-7.625,0-13.839,5.963-14.145,13.575l-0.035,0.863c0.08,3.568,2.016,18.844,27.642,35.983
			c0.134,0.091,14.18,9.301,25.126,9.86L203.838,70.972z M174.481,22.024c0.02,1.385,1.136,2.506,2.506,2.506
			c1.387,0,2.516-1.131,2.516-2.523c-0.113-2.781-1.021-5.345-2.506-7.476C175.513,16.664,174.601,19.232,174.481,22.024z"/>
		<path fill="#E75300" d="M150.117,70.972l-0.113-2.215c10.948-0.559,24.989-9.769,25.128-9.862l1.227,1.851
			C175.765,61.138,161.676,70.383,150.117,70.972z"/>
		<path fill="#E75300" d="M176.367,60.744l-1.235-1.847c29.159-19.501,27.646-36.594,27.627-36.765l1.097-0.126l-0.007-1.11h0.999
			l0.115,0.98C205.052,22.622,206.784,40.398,176.367,60.744z"/>
	</g>
	<g>
		<g id="INSERT_8_">
			<g id="CIRCLE_8_">
				<path fill="#007481" d="M98.861,72.145c0.809-0.798,0.8-2.098,0-2.909c-0.802-0.798-2.1-0.798-2.909,0
					c-0.802,0.811-0.802,2.111,0,2.909C96.756,72.955,98.059,72.955,98.861,72.145L98.861,72.145L98.861,72.145z"/>
			</g>
		</g>
		<g>
			<path fill="#E75300" d="M79.403,67.784c-1.602-1.604-4.196-1.604-5.817,0c-1.6,1.613-1.6,4.218,0,5.817
				c1.608,1.613,4.216,1.613,5.817,0C81.023,71.988,81.009,69.396,79.403,67.784z M76.499,72.76l-2.059-2.064l2.059-2.055
				l2.059,2.055L76.499,72.76z"/>
		</g>
		<g>
			<path fill="#E75300" d="M121.223,67.784c-1.602-1.604-4.199-1.604-5.82,0c-1.6,1.613-1.6,4.218,0,5.817
				c1.61,1.613,4.218,1.613,5.82,0C122.84,71.988,122.827,69.396,121.223,67.784z M118.316,72.76l-2.057-2.064l2.057-2.055
				l2.061,2.055L118.316,72.76z"/>
		</g>
	</g>
	<g>
		<g>
			<path fill="#007481" d="M235.736,66.583l-4.118,4.114l4.118,4.119l4.12-4.119L235.736,66.583z M233.71,70.697l2.057-2.055
				l2.059,2.055l-2.059,2.064L233.71,70.697z"/>
		</g>
		<g>
			<path fill="#007481" d="M277.552,66.583l-4.123,4.114l4.123,4.119l4.12-4.119L277.552,66.583z M275.521,70.697l2.061-2.055
				l2.059,2.055l-2.059,2.064L275.521,70.697z"/>
		</g>
		<g id="INSERT_7_">
			<g id="CIRCLE_7_">
				<path fill="#007481" d="M256.644,68.638"/>
				<path fill="#E75300" d="M252.532,69.665c-0.011,2.271,1.832,4.101,4.107,4.114c2.28-0.004,4.118-1.847,4.118-4.119"/>
			</g>
		</g>
	</g>
	<path fill="#8C7965" d="M63.003,89.602l-0.44-0.063c-0.009,0-0.015,0-0.015,0c-10.614,0-19.044-8.557-19.044-19.479
		c0-10.759,8.755-19.512,19.514-19.512c1.398,0,2.809,0.158,4.196,0.468c8.549,0.915,24.035,2.48,30.297,2.48
		c6.572-0.009,23.309-1.751,30.202-2.499c1.266-0.29,2.681-0.449,4.088-0.449c10.759,0,19.512,8.752,19.512,19.512
		c0,10.764-8.752,19.521-19.512,19.521c-1.398,0-2.805-0.158-4.3-0.486c-8.419-0.906-23.65-2.458-29.938-2.458
		c-0.017,0-0.035,0-0.05,0c-6.693,0-23.563,1.767-30.505,2.525c-1.127,0.241-2.404,0.384-3.696,0.405L63.003,89.602z M63.018,52.768
		c-9.537,0-17.294,7.757-17.294,17.292c0,9.684,7.467,17.271,17,17.271l0.301,0.037l0.199-0.02c1.168-0.015,2.324-0.143,3.435-0.375
		c7.086-0.78,24.053-2.555,30.852-2.555c0.017,0,0.035,0,0.052,0c6.392,0,21.714,1.558,30.293,2.49
		c1.457,0.312,2.707,0.453,3.945,0.453c9.535,0,17.292-7.762,17.292-17.301c0-9.535-7.757-17.292-17.292-17.292
		c-1.242,0-2.497,0.139-3.726,0.416c-7.049,0.772-23.882,2.523-30.562,2.532c-6.368,0-21.944-1.574-30.661-2.512
		C65.502,52.906,64.253,52.768,63.018,52.768z"/>
	<path fill="#8C7965" d="M222.236,89.602l-0.438-0.065c0,0-0.015,0-0.022,0c-10.606,0.002-19.037-8.555-19.037-19.477
		c0-10.759,8.755-19.512,19.514-19.512c1.4,0,2.813,0.158,4.196,0.468c8.553,0.915,24.042,2.48,30.299,2.48
		c6.572-0.009,23.307-1.751,30.2-2.499c1.27-0.29,2.688-0.449,4.088-0.449c10.759,0,19.514,8.752,19.514,19.512
		c0,10.764-8.755,19.521-19.514,19.521c-1.383,0-2.829-0.163-4.298-0.486c-6.754-0.726-23.409-2.458-29.94-2.458
		c-0.015,0-0.033,0-0.048,0c-6.888,0-25.093,1.933-30.508,2.525c-1.144,0.245-2.443,0.388-3.752,0.405l-0.015-1.11l0.128,1.103
		l-0.128-1.103l-0.093,1.127L222.236,89.602z M222.253,52.768c-9.537,0-17.294,7.757-17.294,17.292
		c0,9.684,7.469,17.271,17.002,17.271l0.301,0.037l0.199-0.02c1.166-0.015,2.321-0.143,3.433-0.375
		c7.101-0.782,24.051-2.469,30.906-2.555c6.396,0,21.716,1.558,30.293,2.49c1.452,0.312,2.703,0.453,3.943,0.453
		c9.537,0,17.294-7.762,17.294-17.301c0-9.535-7.757-17.292-17.294-17.292c-1.238,0-2.493,0.139-3.726,0.416
		c-7.049,0.772-23.882,2.523-30.56,2.532c-6.364,0-21.944-1.574-30.664-2.512C224.739,52.906,223.491,52.768,222.253,52.768z"/>
</g>
</svg>
