<svg id="Ebene_1" data-name="Ebene 1" xmlns="http://www.w3.org/2000/svg" viewBox="0 0 343.25 231.54"><defs><style>.cls-1{fill:none}.cls-2{clip-path:url(#clip-path)}.cls-3{opacity:.5}.cls-4{clip-path:url(#clip-path-3)}.cls-5{fill:#ffc652}.cls-6{fill:#ff9800}.cls-7{fill:#fff}.cls-8{fill:#003762}.cls-9{fill:#3d8ba5}.cls-10{fill:#8bb9c8}.cls-11{fill:#4db1d3}.cls-12{fill:#b1b1b1}.cls-13{clip-path:url(#clip-path-7)}.cls-14{fill:#ff456b}.cls-15{fill:#d9d9d9}.cls-16{fill:#517bae}.cls-17{clip-path:url(#clip-path-9)}.cls-18{fill:#4aa7c6}.cls-19{fill:#f4f4f4}.cls-20{fill:#ffd375}.cls-21{fill:#ffac33}.cls-22{fill:#70c1dd}.cls-23{fill:#6eb9d0}.cls-24{fill:#63a2b7}.cls-25{fill:#f6f6f6}.cls-26{fill:#ffce12}</style><clipPath id="clip-path"><path class="cls-1" d="M0 0h343.25v231.54H0z"/></clipPath><clipPath id="clip-path-3"><path class="cls-1" d="M-20.15 138.62h130.01v118.83H-20.15z"/></clipPath><clipPath id="clip-path-7"><path class="cls-1" d="M27.01 86.26h63.37v60.48H27.01z"/></clipPath><clipPath id="clip-path-9"><path class="cls-1" d="M93.28 188.31h63.37v60.48H93.28z"/></clipPath></defs><title>VNC_Master_Illustrationen_</title><g class="cls-2"><g class="cls-2"><g class="cls-3"><g class="cls-4"><path class="cls-5" d="M70 213.29c-23.42 15.18-70 13.87-70 13.87s17.75-43.08 41.13-58.27 35.58-9 43.54 3.28S93.34 198.1 70 213.29"/></g></g><path class="cls-6" d="M65 201.68c-14.23 9.24-41.45 10.19-41.45 10.19s11.93-24.48 26.16-33.72 21.15-6.24 25.37.26 4.15 14-10.08 23.28"/><path class="cls-7" d="M69.49 187.45c-11 7.12-28.52 13.1-28.52 13.1s12.61-13.61 23.57-20.73 14.77-7.16 16.13-5.06-.22 5.56-11.18 12.68"/><path class="cls-8" d="M118.76 150c-6.58-10.12-22.34-16.57-35.55-8l-20.09 13c-.29 3.86.78 11.71 9.4 25s15.35 17.45 19 18.75l20.09-13c13.21-8.58 13.73-25.6 7.15-35.73"/></g><path class="cls-9" d="M76.04 105.24l44.28 26.53 51.13-33.21-64.21-13.58-31.2 20.26z"/><g class="cls-2"><path class="cls-10" d="M155.37 95.16l-33.08-7-2.42 1.57-2.41 1.57 33.08 7z"/></g><path class="cls-11" d="M126.69 127.63L82.42 101.1l-6.47 4.2 44.28 26.53 6.46-4.2zm6.74-4.37L89.15 96.73l-3.53 2.29 44.28 26.53 3.53-2.29z"/><path class="cls-9" d="M142.31 207.28l-6.23-51.24 51.13-33.2-13.7 64.18-31.2 20.26z"/><g class="cls-2"><path class="cls-10" d="M183.79 138.87l-.34.22-3.61 2.35-.84.56-7.06 33.08 2.39-1.55 2.44-1.58z"/></g><path class="cls-11" d="M142.46 151.9l6.23 51.24-6.47 4.2-6.23-51.24 6.47-4.2zm6.73-4.37l6.23 51.24-3.53 2.29-6.23-51.24 3.53-2.29z"/><g class="cls-2"><path class="cls-11" d="M81.73 174.08c-8.62-13.27-9.69-21.12-9.4-25l-9.41 6.11s-4.17 7 8 25.86 20.35 17.87 20.35 17.87l9.41-6.11c-3.64-1.3-10.38-5.48-19-18.75"/><path class="cls-12" d="M322.59 48.77L294.18 5l-20.53 13.34-15.15 9.84-145.32 94.38a21.82 21.82 0 0 0-6.42 30.18l4.63 7.13a21.82 21.82 0 0 0 30.18 6.41L286.9 71.91z"/><path class="cls-8" d="M342.36 4.83c-4.84-7.45-39.63-5.37-48 .07l-23.68 15.37s.19 6.3 11.46 23.66 17 20.1 17 20.1l23.67-15.37c8.38-5.44 24.43-36.38 19.59-43.83"/><path class="cls-9" d="M296 34.93a120.46 120.46 0 0 1-12-23.28l-5.39 3.5s.19 6.3 11.46 23.66 17 20.1 17 20.1l5.39-3.5A120.53 120.53 0 0 1 296 34.93"/><path class="cls-8" d="M270.68 82.47l3.61-2.35c-3.85-2.79-10.46-8.62-17.61-19.63s-9.8-19.49-10.77-24.11l-3.62 2.35c1.28 5.25 4.22 13.49 11 24s13.1 16.47 17.37 19.78m8.15-5.32l3.61-2.35c-3.85-2.79-10.46-8.62-17.61-19.63S255 35.75 254 31.1l-3.62 2.35c1.28 5.25 4.22 13.49 11 24s13.1 16.47 17.37 19.78"/><g class="cls-3"><g class="cls-13"><path class="cls-5" d="M67.59 123.76c-9.65 6.27-28.88 5.73-28.88 5.73s7.33-17.79 17-24.06 14.69-3.7 18 1.36 3.58 10.7-6.07 17"/></g></g><path class="cls-6" d="M65.54 119c-5.87 3.82-17.11 4.21-17.11 4.21s4.93-10.11 10.8-13.92 8.73-2.58 10.47.1 1.71 5.8-4.16 9.61"/><path class="cls-7" d="M67.4 113.09a65 65 0 0 1-11.77 5.41 65 65 0 0 1 9.73-8.56c4.53-2.94 6.1-3 6.66-2.09s-.09 2.3-4.62 5.23"/><path class="cls-12" d="M107.94 85a53 53 0 0 1-5.14-10.08l-2.21 1.43-26.71 17.3-1.83 1.19a9.1 9.1 0 0 0-2.67 12.58l1.93 3a9.1 9.1 0 0 0 12.58 2.68l28.53-18.52 2.08-1.35a53.41 53.41 0 0 1-6.56-8.23"/></g><g class="cls-2"><path class="cls-8" d="M130.57 69.81c-2-3.11-16.52-2.24-20 0L108 71.48l-2.88 1.87-2.35 1.53a54.52 54.52 0 0 0 11.72 18.33L117 91.6l2.88-1.87 2.53-1.64c3.5-2.27 10.19-15.17 8.17-18.28m-21.72 27.1l2.58-1.67a30.4 30.4 0 0 1-7.36-8.2A30.35 30.35 0 0 1 99.58 77L97 78.64a33.05 33.05 0 0 0 4.6 10 33.09 33.09 0 0 0 7.26 8.26m-4.71 3.1l2.58-1.67a30.36 30.36 0 0 1-7.36-8.2A30.33 30.33 0 0 1 94.87 80l-2.57 1.69a33 33 0 0 0 4.6 10 33.05 33.05 0 0 0 7.26 8.26"/><path class="cls-15" d="M102.79 74.88l-2.21 1.43-1 .65a30.32 30.32 0 0 0 4.5 10.04l3.66-2.37a52.84 52.84 0 0 1-4.94-9.76M97 78.64L94.87 80a30.35 30.35 0 0 0 4.49 10.05l2.23-1.45a33 33 0 0 1-4.59-10m-4.7 3.1l-18.41 12-1.83 1.19a9.1 9.1 0 0 0-2.67 12.58l1 1.49 26.5-17.27a33 33 0 0 1-4.59-10"/><path class="cls-16" d="M130.57 69.81c-2-3.11-16.52-2.24-20 0L108 71.48l-2.88 1.87-2.35 1.53a52.85 52.85 0 0 0 4.94 9.76zM99.58 77L97 78.64a33 33 0 0 0 4.59 10l2.49-1.64a30.32 30.32 0 0 1-4.5-10m-4.71 3l-2.57 1.7a33 33 0 0 0 4.59 10l2.48-1.61A30.34 30.34 0 0 1 94.87 80"/><g class="cls-3"><g class="cls-17"><path class="cls-5" d="M133.86 225.8c-9.65 6.27-28.88 5.73-28.88 5.73s7.33-17.79 17-24.05 14.69-3.7 18 1.36 3.58 10.7-6.07 17"/></g></g><path class="cls-6" d="M131.81 221c-5.87 3.81-17.11 4.2-17.11 4.2s4.93-10.11 10.8-13.92 8.73-2.58 10.47.1 1.71 5.8-4.16 9.61"/><path class="cls-7" d="M133.66 215.14a65 65 0 0 1-11.77 5.41 64.91 64.91 0 0 1 9.73-8.56c4.53-2.94 6.1-3 6.66-2.09s-.09 2.3-4.62 5.23"/><path class="cls-12" d="M174.21 187a53 53 0 0 1-5.14-10.08l-2.21 1.43-26.7 17.34-1.83 1.19a9.1 9.1 0 0 0-2.68 12.58l1.93 3a9.1 9.1 0 0 0 12.59 2.68l28.52-18.52 2.08-1.35a53.41 53.41 0 0 1-6.57-8.25"/><path class="cls-8" d="M196.84 171.86c-2-3.11-16.52-2.24-20 0l-2.53 1.64-2.88 1.87-2.35 1.53a54.52 54.52 0 0 0 11.72 18.33l2.48-1.61 2.88-1.87 2.53-1.64c3.49-2.27 10.19-15.17 8.17-18.28M175.13 199l2.58-1.67A35.6 35.6 0 0 1 165.85 179l-2.58 1.67A38.13 38.13 0 0 0 175.13 199m-4.7 3l2.58-1.67a35.61 35.61 0 0 1-11.86-18.27l-2.58 1.67A38.13 38.13 0 0 0 170.43 202"/><path class="cls-15" d="M169.06 176.93l-2.21 1.43-1 .65a30.3 30.3 0 0 0 4.49 10.05l3.66-2.37a52.84 52.84 0 0 1-4.94-9.76m-5.79 3.76l-2.13 1.38a30.33 30.33 0 0 0 4.49 10.05l2.23-1.45a33 33 0 0 1-4.59-10m-4.71 3.06l-18.41 12-1.83 1.19a9.1 9.1 0 0 0-2.67 12.58l1 1.49 26.53-17.23a33 33 0 0 1-4.59-10"/><path class="cls-16" d="M196.84 171.86c-2-3.11-16.52-2.24-20 0l-2.53 1.64-2.88 1.87-2.35 1.53a52.88 52.88 0 0 0 4.94 9.76zM165.85 179l-2.58 1.67a33 33 0 0 0 4.59 10l2.48-1.61a30.32 30.32 0 0 1-4.49-10.06m-4.71 3.07l-2.58 1.67a33 33 0 0 0 4.59 10l2.48-1.61a30.34 30.34 0 0 1-4.49-10.05"/><path class="cls-8" d="M179.85 141.45l3.61-2.35c-3.85-2.78-10.46-8.62-17.61-19.63s-9.8-19.46-10.78-24.11l-3.62 2.35c1.28 5.25 4.22 13.49 11 24s13.1 16.47 17.37 19.78m-32.54 21.11l3.61-2.35c-3.85-2.78-10.46-8.62-17.61-19.63s-9.8-19.46-10.78-24.11l-3.61 2.35c1.28 5.25 4.22 13.5 11 24s13.1 16.47 17.37 19.78"/><path class="cls-18" d="M156.59 156.56l17.58-11.41c-3.85-2.79-10.46-8.62-17.61-19.63s-9.8-19.46-10.78-24.11l-17.58 11.41c1.28 5.25 4.22 13.49 11 24s13.1 16.47 17.37 19.78"/><path class="cls-9" d="M169.76 141.52c-.82-.75-1.7-1.61-2.61-2.54l-17.42 11.31c.89.94 1.75 1.79 2.57 2.57zm-28.03-1.03c.71 1 1.42 2 2.11 2.87l17.36-11.27c-.7-.91-1.41-1.85-2.12-2.86zm12.45-18.83c-.63-1.07-1.21-2.1-1.75-3.1l-17.36 11.27c.55 1 1.13 2 1.76 3.1zm-24.35-3.41c.38 1.07.81 2.2 1.3 3.4l17.42-11.31c-.48-1.22-.9-2.36-1.26-3.42z"/><path class="cls-8" d="M235.43 87.76a11.31 11.31 0 1 1-12.32-19l37.11-24.1a11.31 11.31 0 1 1 12.33 19z"/><path class="cls-19" d="M233.48 85a7.93 7.93 0 0 1-8.64-13.31L261.34 48A7.93 7.93 0 1 1 270 61.3z"/></g><path class="cls-18" transform="rotate(-33 247.236 66.606)" d="M244.46 58.67h5.55v15.87h-5.55z"/><path class="cls-18" transform="rotate(-33 237.305 73.047)" d="M234.52 65.12h5.55v15.87h-5.55z"/><g class="cls-2"><path class="cls-18" d="M266.3 57.49a2.74 2.74 0 1 1 .81-3.79 2.74 2.74 0 0 1-.81 3.79M257.83 63a2.74 2.74 0 1 1 .8-3.79 2.74 2.74 0 0 1-.8 3.79"/><path class="cls-7" d="M342.35 4.83c-4.84-7.45-39.63-5.37-48 .07 8.38-5.44 43.17-7.52 48-.07M62.87 155.32a9.88 9.88 0 0 0-.59 4.78 9.89 9.89 0 0 1 .59-4.78"/><path class="cls-20" d="M62.27 160.1c.18 2.75 1.08 6.75 3.72 12.25-2.65-5.49-3.54-9.5-3.72-12.25"/><path class="cls-21" d="M66 172.35a73.26 73.26 0 0 0 2.64 4.95c-1-1.77-1.9-3.42-2.64-4.95"/><path class="cls-7" d="M68.64 177.3q1.05 1.8 2.33 3.78-1.28-2-2.33-3.78"/><path class="cls-16" d="M103.32 139a24.38 24.38 0 0 0-19.69 2.78h-.14l-10.88 7.07c-.29 3.86.78 11.71 9.4 25l27.36-17.77-2.32-3.58a21.72 21.72 0 0 1-3.73-13.5"/><path class="cls-22" d="M113.18 122.56h-.05.05m-.06 0h-.05.05m-.06 0h-.05.05M72.33 149.1l-9.21 6-.2.13-.06.11a9.88 9.88 0 0 0-.59 4.78c.18 2.75 1.08 6.75 3.72 12.25a73.26 73.26 0 0 0 2.64 4.95q1.05 1.8 2.33 3.78l10.76-7c-8.62-13.27-9.69-21.12-9.4-25"/><path class="cls-15" d="M270.68 20.27l-12.18 7.91-145.32 94.38h-.15l-.09.07a21.78 21.78 0 0 0-9.07 15.9 21.72 21.72 0 0 0 3.44 13.75l2.32 3.58 20.27-13.06c-6.78-10.45-9.73-18.69-11-23.94l3.61-2.35c1 4.64 3.61 13.06 10.77 24.09l5.92-3.85q-1.28-2-2.38-3.83l-.17-.28a74.4 74.4 0 0 1-8.46-19.82l17.58-11.42a49.52 49.52 0 0 0 1.51 5.5c.35 1.06.77 2.21 1.26 3.42a79.21 79.21 0 0 0 3.87 8.23c.54 1 1.12 2 1.75 3.1q1.09 1.86 2.37 3.83l5.92-3.85c-6.78-10.45-9.73-18.69-11-23.94l3.62-2.35c1 4.64 3.61 13.06 10.77 24.09l53.93-35a11.32 11.32 0 0 1 3.33-15.65l24.54-15.93a67.72 67.72 0 0 1-5.35-14.12l3.62-2.35a61.09 61.09 0 0 0 5.14 14.25l4.72-3.07a67.64 67.64 0 0 1-5.35-14.12L254 31.1a61.07 61.07 0 0 0 5.14 14.25l1-.67A11.31 11.31 0 0 1 275.86 48l6.27-4.07c-11.27-17.36-11.46-23.66-11.46-23.66"/><path class="cls-16" d="M342.35 4.83c-4.84-7.45-39.63-5.37-48 .07l-.17.11L284 11.65a120.52 120.52 0 0 0 12 23.28zm-63.77 10.32l-4.93 3.2-3 1.93s.19 6.3 11.46 23.66l7.9-5.13c-11.27-17.36-11.46-23.66-11.46-23.66"/><path class="cls-23" d="M284 11.65l-5.39 3.5s.19 6.3 11.46 23.66l6-3.88a120.55 120.55 0 0 1-12-23.28"/><path class="cls-16" d="M245.91 36.38l-3.62 2.35a67.65 67.65 0 0 0 5.35 14.12l3.41-2.21a61.09 61.09 0 0 1-5.15-14.25m8.1-5.29l-3.62 2.35a67.7 67.7 0 0 0 5.35 14.12l3.41-2.21A61.1 61.1 0 0 1 254 31.1m-98.92 64.26l-3.62 2.35c1.28 5.24 4.22 13.49 11 23.94l3.38-2.19c-7.16-11-9.8-19.45-10.77-24.09m-32.56 21.15l-3.62 2.35c1.28 5.24 4.22 13.49 11 23.94l3.38-2.19c-7.16-11-9.8-19.45-10.77-24.09"/><path class="cls-23" d="M145.78 101.41l-17.58 11.41a74.37 74.37 0 0 0 8.46 19.82c-.56-1-1.09-1.9-1.59-2.81l17.35-11.27a79.19 79.19 0 0 1-3.87-8.23l-17.41 11.31c-.5-1.19-.93-2.33-1.3-3.39l17.46-11.34a49.52 49.52 0 0 1-1.51-5.5m8.4 20.26l-17.35 11.27q1.1 1.86 2.38 3.83l17.34-11.26q-1.28-2-2.37-3.83"/><path class="cls-24" d="M152.43 118.56l-17.35 11.27c.5.92 1 1.85 1.59 2.81l.17.29 17.35-11.26c-.63-1.07-1.21-2.1-1.75-3.1m-5.15-11.66l-17.46 11.34c.38 1.07.81 2.2 1.3 3.39l17.42-11.31c-.48-1.22-.9-2.36-1.26-3.42"/><path class="cls-16" d="M275.86 48a11.31 11.31 0 0 0-15.65-3.33l-1 .67-3.41 2.21-4.72 3.07-3.41 2.21-24.57 15.95a11.32 11.32 0 0 0-3.33 15.65l2.73-1.77a7.93 7.93 0 0 1 2.33-11L261.34 48a7.94 7.94 0 0 1 11 2.33z"/><path class="cls-25" d="M272.31 50.32a7.94 7.94 0 0 0-11-2.33l-36.5 23.7a7.93 7.93 0 0 0-2.33 11L235 74.57l-4.32-6.65 4.66-3 4.32 6.65 5.27-3.43-4.32-6.65 4.66-3 4.32 6.65 4.41-2.96a2.74 2.74 0 0 1 4.6-3l3.87-2.51a2.74 2.74 0 0 1 4.6-3z"/></g><path class="cls-23" transform="rotate(-33 245.063 63.282)" d="M242.3 59.31h5.55v7.93h-5.55z"/><path class="cls-23" transform="rotate(-33 235.131 69.723)" d="M232.36 65.76h5.55v7.93h-5.55z"/><g class="cls-2"><path class="cls-23" d="M267.1 53.7a2.74 2.74 0 0 0-4.6 3zm-8.46 5.5a2.74 2.74 0 0 0-4.6 3z"/><path class="cls-16" d="M204.56 118a19.85 19.85 0 1 1 5.84-27.46 19.85 19.85 0 0 1-5.84 27.46"/><path class="cls-8" d="M201.3 113a13.87 13.87 0 1 1 4.08-19.18A13.87 13.87 0 0 1 201.3 113"/><path class="cls-26" d="M200.12 111.15A11.7 11.7 0 1 1 203.56 95a11.69 11.69 0 0 1-3.44 16.18"/><path class="cls-7" d="M196.11 99.81a4.23 4.23 0 1 1 1.24-5.86 4.23 4.23 0 0 1-1.24 5.86"/><path class="cls-8" d="M208.7 93.33a1.42 1.42 0 1 1 .42-2 1.42 1.42 0 0 1-.42 2m-28.35 18.41a1.42 1.42 0 1 1 .42-2 1.42 1.42 0 0 1-.42 2m5.39-25.35a1.42 1.42 0 1 1-2-.42 1.42 1.42 0 0 1 2 .42m18.41 28.35a1.42 1.42 0 1 1-2-.42 1.42 1.42 0 0 1 2 .42m-5.5-29.64a1.42 1.42 0 1 1-1.1-1.69 1.42 1.42 0 0 1 1.1 1.69m-7.02 33.07a1.42 1.42 0 1 1-1.1-1.69 1.42 1.42 0 0 1 1.1 1.69m-14.12-21.74a1.42 1.42 0 1 1-1.69 1.1 1.42 1.42 0 0 1 1.69-1.1m33.06 7.03a1.42 1.42 0 1 1-1.69 1.1 1.42 1.42 0 0 1 1.69-1.1"/></g></g></svg>