<?xml version="1.0" encoding="utf-8"?>
<!-- Generator: Adobe Illustrator 19.2.1, SVG Export Plug-In . SVG Version: 6.00 Build 0)  -->
<svg version="1.1" xmlns="http://www.w3.org/2000/svg" xmlns:xlink="http://www.w3.org/1999/xlink" x="0px" y="0px" width="476px"
	 height="144px" viewBox="0 0 476 144" enable-background="new 0 0 476 144" xml:space="preserve">
<g id="ARTWORK">
	<g>
		<polygon fill="#00929F" points="302.376,-6.36 288.285,-6.36 -4.553,-6.36 -4.553,150.64 288.285,150.64 302.376,150.64 
			483.317,150.64 483.317,-6.36 		"/>
		<g>
			<path fill="#FFFFFF" d="M167.056,14.109c-2.27,0-4.584,0.153-6.879,0.485c-19.15,2.733-31.969,16.513-39.15,27.079
				c-7.193-10.566-20.009-24.347-39.165-27.079c-2.288-0.332-4.601-0.485-6.874-0.485c-24.658,0-44.713,19.343-44.713,43.114
				c0,23.782,20.055,43.115,44.695,43.115c0,0,0.01,0,0.017,0l0,0c0,0,4.586,0.153,6.874,0.487
				c19.155,2.73,31.972,17.799,39.165,28.365c7.18-10.566,19.999-25.635,39.15-28.365c2.295-0.334,4.609-0.487,6.879-0.487l0,0h0.02
				c24.638,0,44.69-19.334,44.69-43.115C211.766,33.452,191.709,14.109,167.056,14.109z"/>
			<polygon fill="#FFFFFF" points="220.868,15.383 219.943,18.471 218.861,22.34 217.796,18.591 216.879,15.383 215.32,15.383 
				214.431,15.383 209.483,15.383 208.25,15.383 208.25,17.337 210.766,17.337 210.766,24.673 212.811,24.673 212.811,17.337 
				214.087,17.337 214.431,17.337 214.431,24.673 216.181,24.673 216.181,19.381 217.03,22.214 217.753,24.673 219.913,24.673 
				220.601,22.156 221.199,19.775 221.199,24.673 223.158,24.673 223.158,15.383 			"/>
			<g>
				<rect x="57.237" y="52.482" fill="#00929F" width="35.628" height="11.494"/>
			</g>
			<g>
				<polygon fill="#00929F" points="184.554,52.482 172.493,52.482 172.493,40.408 160.988,40.408 160.988,52.482 148.915,52.482 
					148.915,63.976 160.988,63.976 160.988,76.049 172.493,76.049 172.493,63.976 184.554,63.976 				"/>
			</g>
		</g>
		<g>
			<g>
				<path fill="#FFFFFF" d="M283.346,80.815v41.769H273v-16.451h-12.659v16.451h-10.346V80.815h10.346v16.322H273V80.815H283.346z"
					/>
				<path fill="#FFFFFF" d="M323.506,80.815v8.418H303.52v7.904h18.186v8.354H303.52v8.546h19.92v8.547h-30.266V80.815H323.506z"/>
				<path fill="#FFFFFF" d="M330.891,122.584L344,80.815h11.63l13.302,41.769h-10.988l-2.314-8.547h-12.016l-2.12,8.547H330.891z
					 M349.397,90.711l-3.791,15.294h7.903L349.397,90.711z"/>
				<path fill="#FFFFFF" d="M375.419,80.815h16.836c11.566,0,15.936,5.912,15.936,13.944c0,5.719-2.313,10.089-6.875,12.531
					l8.161,15.294h-12.21l-6.297-13.238h-5.206v13.238h-10.346V80.815z M397.204,94.824c0-3.727-1.349-5.591-6.169-5.591h-5.269
					v11.824h5.462C394.826,101.057,397.204,99.45,397.204,94.824z"/>
				<path fill="#FFFFFF" d="M450.665,89.233h-12.339v33.351h-10.345V89.233h-12.339v-8.418h35.023V89.233z"/>
			</g>
			<path fill="#FFFFFF" d="M247.779,62.485l13.109-41.769h11.63l13.302,41.769h-10.988l-2.314-8.547h-12.016l-2.12,8.547H247.779z
				 M266.285,30.613l-3.791,15.294h7.903L266.285,30.613z"/>
			<path fill="#FFFFFF" d="M325.98,29.135h-12.339v33.351h-10.345V29.135h-12.339v-8.418h35.023V29.135z"/>
		</g>
	</g>
</g>
<g id="GUIDES" display="none">
</g>
</svg>
